<svg version="1.1" id="Layer_1" xmlns="http://www.w3.org/2000/svg" xmlns:xlink="http://www.w3.org/1999/xlink" x="0px" y="0px"
	 width="100%" viewBox="0 0 505 337" enable-background="new 0 0 505 337" xml:space="preserve">
<path fill="#FFFFFF" opacity="1.000000" stroke="none" 
	d="
M284.000000,338.000000 
	C189.333344,338.000000 95.166687,338.000000 1.000025,338.000000 
	C1.000017,225.666687 1.000017,113.333382 1.000008,1.000055 
	C169.333298,1.000037 337.666595,1.000037 505.999908,1.000018 
	C505.999939,113.333275 505.999939,225.666550 505.999969,337.999908 
	C432.166656,338.000000 358.333344,338.000000 284.000000,338.000000 
M461.040619,171.717224 
	C461.720337,172.089142 462.400085,172.461060 463.609192,173.221542 
	C464.625031,174.037888 465.640839,174.854233 466.446106,175.501343 
	C465.235077,177.176132 464.173737,178.766479 462.987335,180.257233 
	C460.984375,182.774063 459.337067,185.896530 456.763641,187.570328 
	C451.228363,191.170547 446.924530,195.103012 447.002014,202.318985 
	C447.018951,203.895737 446.063904,205.469162 445.645020,207.067307 
	C444.821991,210.207260 443.472809,213.346451 443.380798,216.516113 
	C443.057159,227.666382 443.874725,238.896011 442.823578,249.959106 
	C442.311035,255.353958 439.342255,260.948517 436.148499,265.518463 
	C433.596344,269.170349 428.555725,270.993286 425.504181,274.416473 
	C423.351227,276.831573 422.679321,280.566895 421.346191,283.712830 
	C423.998291,284.435791 426.798370,286.102264 429.276062,285.713531 
	C438.524567,284.262543 445.947693,279.197235 451.785278,272.038818 
	C460.691406,261.117493 463.875946,248.278946 463.962189,234.392868 
	C464.018890,225.258682 464.353149,216.113235 464.955597,206.998764 
	C465.677795,196.072128 472.271423,188.386963 482.870331,185.773804 
	C487.002655,184.754974 491.248383,184.196091 495.856201,183.351913 
	C495.856201,181.180984 495.857422,179.211914 495.856049,177.242828 
	C495.850067,168.805359 495.715149,168.650604 487.175079,167.012634 
	C486.523285,166.887634 485.895996,166.634674 485.244232,166.509354 
	C472.717194,164.100876 466.233337,157.764145 465.029358,144.990479 
	C464.002319,134.094238 464.411255,123.070702 463.718567,112.133003 
	C462.681824,95.763977 458.031799,81.054436 443.065063,71.734390 
	C438.055420,68.614799 432.670349,65.908607 426.711334,67.357018 
	C424.327850,67.936356 421.629761,70.620987 420.818329,72.953728 
	C420.354675,74.286797 423.027130,77.367760 424.949310,78.723335 
	C428.018219,80.887581 431.638428,82.270164 435.105225,84.613350 
	C435.734955,85.077835 436.364685,85.542313 437.000000,86.000000 
	C437.000000,86.000000 436.993225,86.005875 437.092529,86.724388 
	C438.933563,91.682205 442.612793,95.653015 442.371063,101.760910 
	C441.939911,112.654579 442.770844,123.601830 443.188141,134.522308 
	C443.269012,136.639328 443.818298,138.747269 444.246246,140.840057 
	C444.827759,143.684219 445.956085,146.494995 446.048645,149.346085 
	C446.325531,157.875885 452.853394,167.724533 460.992249,170.997787 
	C460.992249,170.997787 460.904053,171.101852 461.040619,171.717224 
M306.496368,222.475449 
	C306.315643,222.526138 306.134888,222.576843 305.191742,222.276535 
	C302.288391,222.149033 300.259338,221.550018 300.033966,217.789597 
	C299.468811,208.358597 298.497742,207.381622 289.005035,204.335663 
	C293.900330,200.242432 298.486267,196.407883 303.746155,192.009796 
	C304.683685,184.160263 304.641418,184.109940 295.919861,184.108398 
	C294.253357,184.108093 292.513428,183.806351 290.937958,184.185791 
	C288.719635,184.720078 285.262390,185.287552 284.775391,186.688934 
	C283.923126,189.141525 284.926697,192.239029 285.152740,195.066330 
	C285.704254,195.222855 286.255768,195.379379 286.807312,195.535889 
	C283.517242,198.651459 280.227173,201.767014 276.937103,204.882568 
	C276.930908,200.337204 273.725128,195.892059 279.118103,192.804840 
	C281.710632,191.320740 279.590668,184.437790 276.634277,184.295746 
	C269.885010,183.971481 263.109528,184.193314 255.125214,184.193314 
	C256.113831,188.071732 256.717896,191.063828 257.676056,193.937897 
	C258.155273,195.375397 259.750885,196.511353 260.011658,197.935638 
	C260.486298,200.528091 260.342041,203.233887 260.202972,206.779907 
	C260.286133,209.219360 260.369293,211.658829 260.269531,214.956131 
	C260.147766,217.092285 260.025970,219.228439 259.897919,221.474747 
	C252.718048,222.549850 255.668289,227.514771 255.472794,231.673813 
	C263.700653,231.673813 271.576080,231.673813 279.726837,231.673813 
	C279.900787,227.564301 280.043671,224.287537 276.572815,221.254013 
	C275.063873,219.935211 275.460938,216.071747 275.686859,213.423248 
	C275.734985,212.859360 279.295074,211.697006 280.366516,212.316376 
	C282.256775,213.409164 283.834625,215.479996 284.851471,217.491135 
	C285.523163,218.819565 285.126465,220.773193 284.963196,222.422653 
	C284.492401,227.179550 286.631714,230.516129 291.134155,231.206711 
	C295.993347,231.951996 301.022919,231.586288 306.499451,231.744934 
	C306.673126,231.733429 306.846832,231.721909 307.926331,231.952911 
	C314.173828,231.952911 320.421295,231.952911 328.153564,231.952911 
	C326.811432,227.980637 325.988770,225.054504 324.808044,222.280838 
	C324.299805,221.086899 323.049347,220.208908 322.136108,219.187378 
	C323.448730,218.133347 324.655426,216.389145 326.095856,216.168091 
	C329.148743,215.699631 332.323456,216.025269 335.609192,216.025269 
	C336.053070,218.190445 336.397614,219.870926 336.742126,221.551422 
	C336.190857,221.367508 335.639587,221.183594 335.088318,220.999695 
	C334.074280,222.692352 332.347046,224.341202 332.239594,226.089584 
	C332.123810,227.973679 333.443420,231.592407 334.277100,231.633881 
	C342.662018,232.050842 351.075806,231.887650 359.616150,231.887650 
	C359.616150,228.426865 359.616150,225.656601 359.616150,223.548843 
	C357.668396,222.148010 355.640778,221.400497 354.857483,219.971115 
	C353.443817,217.391357 352.652069,214.439484 351.818054,211.579605 
	C349.726654,204.408020 347.860168,197.169434 345.681152,190.025528 
	C344.936493,187.584076 344.168884,185.016357 340.494202,184.985992 
	C333.370300,184.927170 326.252655,184.303497 319.127380,184.154602 
	C313.575867,184.038589 311.449463,187.558807 314.441132,192.169525 
	C315.393219,193.636856 317.861328,194.120483 319.786469,195.133575 
	C319.149261,198.599945 318.758881,202.205307 317.776184,205.641235 
	C316.842896,208.904404 314.665955,211.894363 314.161102,215.177490 
	C313.471375,219.662552 311.468933,222.089615 306.496368,222.475449 
M20.354181,172.119751 
	C18.744663,173.039780 16.321712,173.573303 15.668634,174.947769 
	C13.057494,180.443115 15.598870,185.087906 21.492207,186.427811 
	C22.622396,186.684769 23.779556,186.835846 24.930807,186.985489 
	C35.569695,188.368256 42.963989,194.635757 46.703213,204.057877 
	C48.739868,209.189850 48.643246,215.620270 47.979397,221.285873 
	C46.117767,237.173813 47.802090,252.080780 54.798649,266.800446 
	C60.403095,278.591339 68.928307,285.758636 81.044357,289.075500 
	C89.836723,291.482483 91.165985,290.255463 91.840721,281.326172 
	C92.036514,278.735107 91.281319,277.260468 88.688065,276.653320 
	C76.356102,273.766144 71.575768,264.127075 70.158104,253.255096 
	C68.446075,240.125458 68.668045,226.750977 67.854362,213.494659 
	C67.141350,201.878311 63.241379,191.782440 53.305103,184.747208 
	C50.027058,182.426254 46.922836,179.859787 43.730274,177.398758 
	C59.609085,169.741547 67.709839,157.324265 67.950974,139.740799 
	C68.105965,128.438797 68.489288,117.138588 68.884048,105.841545 
	C69.423149,90.413818 74.639252,83.408974 89.277542,78.629150 
	C92.860687,77.459160 92.156822,74.800713 91.594650,72.574242 
	C90.951416,70.026764 91.743484,66.064468 86.955345,66.315125 
	C79.691780,66.695358 72.899246,68.204407 67.845123,73.955551 
	C64.462646,77.804512 60.991737,81.618568 58.032253,85.783516 
	C55.460720,89.402489 52.274197,93.300529 51.656265,97.419785 
	C50.781452,103.251503 50.162380,108.820755 47.997478,114.523911 
	C46.217712,119.212486 47.789719,125.072990 47.219090,130.342926 
	C46.198029,139.772873 49.850750,149.475662 43.616608,158.730408 
	C39.803802,164.390610 35.668884,167.734695 29.310085,169.144287 
	C26.515289,169.763824 23.861486,171.019409 20.354181,172.119751 
M382.026520,214.841263 
	C383.815369,214.309006 386.148499,212.836227 387.257843,213.478180 
	C388.704041,214.315079 389.844116,216.784958 389.965179,218.627747 
	C390.721954,230.146698 392.611328,232.054443 404.197418,232.065445 
	C405.860596,232.067017 407.671448,232.462814 409.144012,231.930069 
	C410.521637,231.431656 412.493134,229.963760 412.517822,228.884018 
	C412.568146,226.682999 411.718872,222.663910 410.827454,222.547226 
	C406.774353,222.016647 407.014038,219.108154 406.201569,216.496841 
	C405.308228,213.625534 404.051056,210.867447 402.807800,207.690598 
	C407.437622,203.949570 409.939789,198.722656 407.366455,192.367126 
	C404.656555,185.674347 398.549652,184.289871 392.145111,184.162842 
	C384.164642,184.004562 376.178589,184.088318 368.195251,184.126953 
	C362.570465,184.154175 361.164795,185.797729 362.734467,191.042328 
	C363.373322,193.176712 365.743683,194.961136 365.932037,197.031616 
	C366.591675,204.282562 366.746399,211.587616 366.826813,218.875046 
	C366.840393,220.102264 365.812317,222.072021 364.795868,222.456253 
	C359.705750,224.380432 360.746582,227.946198 361.563721,231.674927 
	C369.768280,231.674927 377.660248,231.674927 386.187531,231.674927 
	C385.864685,228.373718 386.349670,223.404922 385.160950,222.965683 
	C380.923615,221.399994 382.204163,218.441116 382.026520,214.841263 
M261.931793,131.520294 
	C265.828186,127.778481 266.547699,122.390961 264.115662,118.743118 
	C261.763000,115.214348 256.817230,111.992371 252.623260,111.406281 
	C243.604309,110.145889 234.335678,110.486755 225.170593,110.521843 
	C218.973541,110.545555 218.576019,111.127907 219.216599,117.150955 
	C219.353241,118.435539 220.785339,119.572067 221.586548,120.799057 
	C222.437531,122.102242 223.910263,123.405922 223.963120,124.754410 
	C224.210434,131.063110 224.114258,137.388214 224.009109,143.705276 
	C223.988525,144.942001 223.615295,147.109726 223.014755,147.256897 
	C216.020752,148.970917 220.164185,153.939438 219.067780,158.035690 
	C230.091171,158.035690 240.365204,158.068695 250.638885,158.022522 
	C256.237579,157.997345 261.923248,156.637482 264.032532,151.226974 
	C266.073456,145.991852 266.935455,139.899170 261.759430,135.108200 
	C261.197754,134.588287 261.508759,133.125519 261.931793,131.520294 
M248.496994,191.576813 
	C246.378113,190.091385 244.459473,187.989807 242.106369,187.225098 
	C230.727478,183.527115 218.894547,184.001450 207.147064,184.264053 
	C205.795746,184.294250 203.429810,186.185471 203.387512,187.285095 
	C203.309357,189.317703 204.479950,191.458298 205.365417,193.449371 
	C206.100327,195.101974 207.912064,196.578064 207.969131,198.177917 
	C208.229904,205.488419 208.048874,212.815033 207.992798,220.135605 
	C207.989243,220.598068 207.699081,221.058334 207.519699,221.585907 
	C206.115234,221.953125 204.731567,222.314896 203.451767,222.649506 
	C203.451767,225.848679 203.451767,228.740479 203.451767,231.610229 
	C211.748856,231.610229 219.627975,231.610229 228.014862,231.610229 
	C227.510834,228.362549 228.057449,224.333298 226.469391,223.136414 
	C222.477097,220.127457 224.225403,216.870422 224.211914,213.563309 
	C230.419724,212.672348 231.846252,213.806122 231.975235,219.351944 
	C232.058777,222.943542 231.721375,226.369629 235.081390,229.301147 
	C240.923630,234.398300 247.299149,231.021759 253.643829,232.000778 
	C253.643829,228.446793 253.643829,225.542206 253.643829,223.464920 
	C251.393707,221.992950 248.967804,221.279251 248.230499,219.750946 
	C246.416794,215.991379 245.379730,211.857147 244.123306,208.148071 
	C245.566528,205.967133 247.890030,203.581879 248.801590,200.743225 
	C249.617386,198.202774 248.876953,195.162613 248.496994,191.576813 
M346.107025,123.632698 
	C343.408875,117.086197 338.015564,112.760056 331.647064,111.795265 
	C320.785583,110.149803 309.668854,110.189606 298.435425,109.507858 
	C298.435425,113.738747 298.435425,116.643311 298.435425,119.462601 
	C300.129181,119.949066 301.501434,120.343185 302.813416,120.720001 
	C302.813416,129.799454 302.813416,138.582977 302.813416,147.619888 
	C301.262604,147.959351 299.876587,148.262726 298.567749,148.549225 
	C298.567749,151.742416 298.567749,154.615723 298.567749,157.912888 
	C308.489960,157.912888 317.990112,158.388351 327.421814,157.788361 
	C338.357117,157.092728 345.773346,150.597305 347.375824,140.101166 
	C348.151276,135.021912 346.797668,129.617584 346.107025,123.632698 
M131.694809,185.591736 
	C126.778023,185.084900 121.749771,183.718491 116.978935,184.337158 
	C113.003044,184.852722 108.147110,186.738556 105.749535,189.695023 
	C99.302444,197.644989 104.015625,210.929916 113.792282,213.957199 
	C118.051712,215.276108 122.571159,215.754303 126.832771,217.067734 
	C128.131790,217.468109 129.895615,219.490005 129.768478,220.572098 
	C129.619598,221.839218 127.815445,223.529724 126.418663,223.917435 
	C122.088310,225.119522 117.499634,222.636719 115.223763,218.607117 
	C114.657219,217.604019 113.654396,216.386246 112.652710,216.163391 
	C105.089638,214.480850 102.994133,216.206467 102.992020,223.784958 
	C102.991745,224.783844 102.978546,225.782944 102.994476,226.781586 
	C103.064865,231.193802 106.588005,234.081436 110.016335,231.627670 
	C113.679543,229.005753 116.029129,230.738632 119.063187,231.811279 
	C125.663536,234.144775 132.092575,232.754700 138.542908,230.773666 
	C143.191360,229.346054 143.620850,225.258347 145.240448,221.709778 
	C148.537308,214.486313 144.345123,205.192535 135.949387,202.268997 
	C132.680359,201.130676 129.090714,200.916153 125.816322,199.789215 
	C123.451767,198.975418 121.318092,197.418121 119.251366,195.952744 
	C119.090195,195.838470 120.183708,192.928543 120.840408,192.866501 
	C123.520576,192.613220 126.303261,192.717575 128.951019,193.211227 
	C129.990265,193.405014 130.883286,194.885895 131.654449,195.920975 
	C134.031555,199.111649 140.546326,201.832809 143.294159,199.646866 
	C145.058670,198.243179 145.030991,194.538574 145.702881,191.839508 
	C145.898071,191.055435 145.980240,190.081650 145.688004,189.369827 
	C144.973221,187.628769 144.362259,185.030228 143.057587,184.550735 
	C141.395309,183.939789 139.098602,185.125961 137.060699,185.442932 
	C135.526306,185.681610 133.968781,185.771591 131.694809,185.591736 
M180.179581,184.115768 
	C171.929535,184.115768 163.679489,184.115768 155.386292,184.115768 
	C155.386292,187.814606 155.386292,190.726059 155.386292,193.603577 
	C157.436340,193.986694 159.143082,194.305664 161.692673,194.782150 
	C158.845428,203.328857 156.225510,211.442261 153.371262,219.472382 
	C152.977051,220.581467 151.306992,221.179184 150.438736,222.194260 
	C149.602356,223.172028 148.658356,224.315491 148.444565,225.508530 
	C148.111710,227.366043 148.356537,229.327072 148.356537,231.646423 
	C154.885437,231.646423 161.222717,231.646423 167.846863,231.646423 
	C167.520325,227.474182 170.417572,222.639297 163.933197,221.182053 
	C164.385696,216.790527 165.457779,213.923599 170.507339,215.928802 
	C171.657974,216.385712 173.224274,215.722672 174.449387,216.083664 
	C175.994644,216.538986 177.386200,217.515854 178.844055,218.267715 
	C177.864868,219.558563 176.580551,220.722382 175.977859,222.169983 
	C175.069458,224.351807 174.395905,226.704025 174.125778,229.041962 
	C174.022888,229.932480 175.290741,231.818542 175.967529,231.834610 
	C184.202530,232.030289 192.443817,231.961670 200.788284,231.961670 
	C200.788284,228.414551 200.788284,225.631958 200.788284,222.849350 
	C200.321426,223.044571 199.854584,223.239777 199.387726,223.434998 
	C197.946030,221.264435 195.925140,219.278366 195.164612,216.890823 
	C192.146362,207.415497 189.475693,197.827774 186.778870,188.252777 
	C185.934586,185.255173 184.356018,183.611343 180.179581,184.115768 
M184.527130,110.111244 
	C182.196671,110.112083 179.839523,109.897682 177.544250,110.182281 
	C175.727737,110.407524 172.757843,110.900337 172.481201,111.886299 
	C171.980270,113.671661 172.421036,116.971100 173.671097,117.779877 
	C178.868988,121.142792 176.281494,125.134453 175.356812,129.103058 
	C174.757050,131.677200 174.690704,134.496811 173.558029,136.799469 
	C171.419815,141.146317 168.885071,145.338120 166.126511,149.325531 
	C164.330322,151.921890 164.445221,157.726517 166.911819,157.864304 
	C172.789413,158.192642 178.697769,157.970139 184.471497,157.970139 
	C184.471497,154.253281 184.471497,151.410980 184.471497,149.557037 
	C182.288605,148.024460 180.701111,146.909897 179.113602,145.795334 
	C180.902802,144.459198 182.525635,142.458893 184.524124,141.958359 
	C186.916763,141.359085 189.834152,141.499466 192.130539,142.364639 
	C193.577362,142.909744 194.302597,145.370102 195.644348,147.418289 
	C193.093399,147.993439 191.696793,148.308334 189.936417,148.705231 
	C190.088760,151.811111 190.229294,154.676376 190.377182,157.691376 
	C199.790131,157.691376 208.522171,157.691376 217.186462,157.691376 
	C218.270905,151.161057 218.210785,151.237579 213.607620,147.620956 
	C212.685089,146.896149 212.240509,145.395157 211.869781,144.163498 
	C209.716705,137.010773 207.647400,129.832794 205.557556,122.661079 
	C201.899109,110.106255 201.901474,110.105583 189.009964,110.110909 
	C187.844727,110.111389 186.679504,110.111526 184.527130,110.111244 
M280.514709,110.108154 
	C276.904358,110.108154 273.293976,110.108154 269.405823,110.108154 
	C269.405823,113.630699 269.405823,116.526184 269.405823,119.508934 
	C271.032837,119.895401 272.418762,120.224602 274.106262,120.625443 
	C274.106262,128.470047 274.092194,136.099609 274.115143,143.729065 
	C274.121765,145.932922 274.275391,147.725891 271.192963,148.514832 
	C270.081512,148.799271 269.361542,152.271088 269.295471,154.315277 
	C269.259979,155.414108 270.955811,157.516602 271.926361,157.550201 
	C279.678680,157.818512 287.444366,157.699997 295.531372,157.699997 
	C295.531372,154.542389 295.531372,151.650833 295.531372,148.666428 
	C293.628693,148.245544 291.932495,147.870331 290.335052,147.516968 
	C290.335052,138.263138 290.335052,129.357239 290.335052,120.381203 
	C292.243347,120.096672 293.828064,119.860382 295.314362,119.638763 
	C296.747711,110.449043 296.475739,110.109375 287.988373,110.108147 
	C285.826050,110.107826 283.663757,110.108269 280.514709,110.108154 
z"/>
<path fill="#73FEDC" opacity="1.000000" stroke="none" 
	d="
M20.748924,172.052979 
	C23.861486,171.019409 26.515289,169.763824 29.310085,169.144287 
	C35.668884,167.734695 39.803802,164.390610 43.616608,158.730408 
	C49.850750,149.475662 46.198029,139.772873 47.219090,130.342926 
	C47.789719,125.072990 46.217712,119.212486 47.997478,114.523911 
	C50.162380,108.820755 50.781452,103.251503 51.656265,97.419785 
	C52.274197,93.300529 55.460720,89.402489 58.032253,85.783516 
	C60.991737,81.618568 64.462646,77.804512 67.845123,73.955551 
	C72.899246,68.204407 79.691780,66.695358 86.955345,66.315125 
	C91.743484,66.064468 90.951416,70.026764 91.594650,72.574242 
	C92.156822,74.800713 92.860687,77.459160 89.277542,78.629150 
	C74.639252,83.408974 69.423149,90.413818 68.884048,105.841545 
	C68.489288,117.138588 68.105965,128.438797 67.950974,139.740799 
	C67.709839,157.324265 59.609085,169.741547 43.730274,177.398758 
	C46.922836,179.859787 50.027058,182.426254 53.305103,184.747208 
	C63.241379,191.782440 67.141350,201.878311 67.854362,213.494659 
	C68.668045,226.750977 68.446075,240.125458 70.158104,253.255096 
	C71.575768,264.127075 76.356102,273.766144 88.688065,276.653320 
	C91.281319,277.260468 92.036514,278.735107 91.840721,281.326172 
	C91.165985,290.255463 89.836723,291.482483 81.044357,289.075500 
	C68.928307,285.758636 60.403095,278.591339 54.798649,266.800446 
	C47.802090,252.080780 46.117767,237.173813 47.979397,221.285873 
	C48.643246,215.620270 48.739868,209.189850 46.703213,204.057877 
	C42.963989,194.635757 35.569695,188.368256 24.930807,186.985489 
	C23.779556,186.835846 22.622396,186.684769 21.492207,186.427811 
	C15.598870,185.087906 13.057494,180.443115 15.668634,174.947769 
	C16.321712,173.573303 18.744663,173.039780 20.748924,172.052979 
z"/>
<path fill="#72FEDC" opacity="1.000000" stroke="none" 
	d="
M435.025513,83.983253 
	C431.638428,82.270164 428.018219,80.887581 424.949310,78.723335 
	C423.027130,77.367760 420.354675,74.286797 420.818329,72.953728 
	C421.629761,70.620987 424.327850,67.936356 426.711334,67.357018 
	C432.670349,65.908607 438.055420,68.614799 443.065063,71.734390 
	C458.031799,81.054436 462.681824,95.763977 463.718567,112.133003 
	C464.411255,123.070702 464.002319,134.094238 465.029358,144.990479 
	C466.233337,157.764145 472.717194,164.100876 485.244232,166.509354 
	C485.895996,166.634674 486.523285,166.887634 487.175079,167.012634 
	C495.715149,168.650604 495.850067,168.805359 495.856049,177.242828 
	C495.857422,179.211914 495.856201,181.180984 495.856201,183.351913 
	C491.248383,184.196091 487.002655,184.754974 482.870331,185.773804 
	C472.271423,188.386963 465.677795,196.072128 464.955597,206.998764 
	C464.353149,216.113235 464.018890,225.258682 463.962189,234.392868 
	C463.875946,248.278946 460.691406,261.117493 451.785278,272.038818 
	C445.947693,279.197235 438.524567,284.262543 429.276062,285.713531 
	C426.798370,286.102264 423.998291,284.435791 421.346191,283.712830 
	C422.679321,280.566895 423.351227,276.831573 425.504181,274.416473 
	C428.555725,270.993286 433.596344,269.170349 436.148499,265.518463 
	C439.342255,260.948517 442.311035,255.353958 442.823578,249.959106 
	C443.874725,238.896011 443.057159,227.666382 443.380798,216.516113 
	C443.472809,213.346451 444.821991,210.207260 445.645020,207.067307 
	C446.063904,205.469162 447.018951,203.895737 447.002014,202.318985 
	C446.924530,195.103012 451.228363,191.170547 456.763641,187.570328 
	C459.337067,185.896530 460.984375,182.774063 462.987335,180.257233 
	C464.173737,178.766479 465.235077,177.176132 466.446106,175.501343 
	C465.640839,174.854233 464.625031,174.037888 463.277771,172.717667 
	C462.265594,171.843155 461.584839,171.472504 460.904053,171.101852 
	C460.904053,171.101852 460.992249,170.997787 460.954865,170.689514 
	C458.790985,167.689377 456.503326,165.106857 454.581818,162.275833 
	C452.534943,159.260117 449.494171,156.119614 449.224396,152.841293 
	C448.269379,141.234833 448.343994,129.545151 447.948303,117.889748 
	C447.881927,115.934319 447.447479,113.987587 447.131683,112.045197 
	C446.430237,107.730629 444.719391,103.305336 445.214233,99.138260 
	C445.885162,93.488297 440.893402,91.054588 439.741119,86.630737 
	C439.632111,86.212257 437.946747,86.204384 436.993225,86.005875 
	C436.993225,86.005875 437.000000,86.000000 436.964783,85.682388 
	C436.294861,84.904266 435.660187,84.443756 435.025513,83.983253 
z"/>
<path fill="#FFC485" opacity="1.000000" stroke="none" 
	d="
M382.008118,215.282410 
	C382.204163,218.441116 380.923615,221.399994 385.160950,222.965683 
	C386.349670,223.404922 385.864685,228.373718 386.187531,231.674927 
	C377.660248,231.674927 369.768280,231.674927 361.563721,231.674927 
	C360.746582,227.946198 359.705750,224.380432 364.795868,222.456253 
	C365.812317,222.072021 366.840393,220.102264 366.826813,218.875046 
	C366.746399,211.587616 366.591675,204.282562 365.932037,197.031616 
	C365.743683,194.961136 363.373322,193.176712 362.734467,191.042328 
	C361.164795,185.797729 362.570465,184.154175 368.195251,184.126953 
	C376.178589,184.088318 384.164642,184.004562 392.145111,184.162842 
	C398.549652,184.289871 404.656555,185.674347 407.366455,192.367126 
	C409.939789,198.722656 407.437622,203.949570 402.807800,207.690598 
	C404.051056,210.867447 405.308228,213.625534 406.201569,216.496841 
	C407.014038,219.108154 406.774353,222.016647 410.827454,222.547226 
	C411.718872,222.663910 412.568146,226.682999 412.517822,228.884018 
	C412.493134,229.963760 410.521637,231.431656 409.144012,231.930069 
	C407.671448,232.462814 405.860596,232.067017 404.197418,232.065445 
	C392.611328,232.054443 390.721954,230.146698 389.965179,218.627747 
	C389.844116,216.784958 388.704041,214.315079 387.257843,213.478180 
	C386.148499,212.836227 383.815369,214.309006 382.008118,215.282410 
M386.281036,204.117599 
	C390.386597,204.136444 392.597015,202.260803 391.997162,198.005646 
	C391.492371,194.424881 387.793335,193.275833 381.981445,194.924530 
	C381.981445,196.956436 381.583435,199.199127 382.130585,201.180893 
	C382.459106,202.370834 384.262390,203.153625 386.281036,204.117599 
z"/>
<path fill="#FFC586" opacity="1.000000" stroke="none" 
	d="
M261.673401,131.810181 
	C261.508759,133.125519 261.197754,134.588287 261.759430,135.108200 
	C266.935455,139.899170 266.073456,145.991852 264.032532,151.226974 
	C261.923248,156.637482 256.237579,157.997345 250.638885,158.022522 
	C240.365204,158.068695 230.091171,158.035690 219.067780,158.035690 
	C220.164185,153.939438 216.020752,148.970917 223.014755,147.256897 
	C223.615295,147.109726 223.988525,144.942001 224.009109,143.705276 
	C224.114258,137.388214 224.210434,131.063110 223.963120,124.754410 
	C223.910263,123.405922 222.437531,122.102242 221.586548,120.799057 
	C220.785339,119.572067 219.353241,118.435539 219.216599,117.150955 
	C218.576019,111.127907 218.973541,110.545555 225.170593,110.521843 
	C234.335678,110.486755 243.604309,110.145889 252.623260,111.406281 
	C256.817230,111.992371 261.763000,115.214348 264.115662,118.743118 
	C266.547699,122.390961 265.828186,127.778481 261.673401,131.810181 
M239.925491,144.386887 
	C239.481033,149.693680 243.459061,148.102219 246.007080,147.989319 
	C249.400574,147.838959 250.303680,145.256348 249.907150,142.316040 
	C249.401413,138.565750 246.213303,137.392227 240.133621,138.701035 
	C240.066116,140.238419 239.995071,141.856140 239.925491,144.386887 
M248.878128,122.869446 
	C246.872696,118.928879 243.610031,119.977882 240.342056,120.411041 
	C240.342056,123.433296 240.342056,126.111870 240.342056,128.740311 
	C247.329788,129.462646 248.288574,128.869629 248.878128,122.869446 
z"/>
<path fill="#FFC586" opacity="1.000000" stroke="none" 
	d="
M248.660080,191.959869 
	C248.876953,195.162613 249.617386,198.202774 248.801590,200.743225 
	C247.890030,203.581879 245.566528,205.967133 244.123306,208.148071 
	C245.379730,211.857147 246.416794,215.991379 248.230499,219.750946 
	C248.967804,221.279251 251.393707,221.992950 253.643829,223.464920 
	C253.643829,225.542206 253.643829,228.446793 253.643829,232.000778 
	C247.299149,231.021759 240.923630,234.398300 235.081390,229.301147 
	C231.721375,226.369629 232.058777,222.943542 231.975235,219.351944 
	C231.846252,213.806122 230.419724,212.672348 224.211914,213.563309 
	C224.225403,216.870422 222.477097,220.127457 226.469391,223.136414 
	C228.057449,224.333298 227.510834,228.362549 228.014862,231.610229 
	C219.627975,231.610229 211.748856,231.610229 203.451767,231.610229 
	C203.451767,228.740479 203.451767,225.848679 203.451767,222.649506 
	C204.731567,222.314896 206.115234,221.953125 207.519699,221.585907 
	C207.699081,221.058334 207.989243,220.598068 207.992798,220.135605 
	C208.048874,212.815033 208.229904,205.488419 207.969131,198.177917 
	C207.912064,196.578064 206.100327,195.101974 205.365417,193.449371 
	C204.479950,191.458298 203.309357,189.317703 203.387512,187.285095 
	C203.429810,186.185471 205.795746,184.294250 207.147064,184.264053 
	C218.894547,184.001450 230.727478,183.527115 242.106369,187.225098 
	C244.459473,187.989807 246.378113,190.091385 248.660080,191.959869 
M223.021240,196.865967 
	C223.011139,198.032059 222.748291,199.269043 223.050751,200.347473 
	C223.493881,201.927399 224.589203,204.760361 224.977768,204.690033 
	C227.812561,204.176971 230.722809,203.384644 233.184494,201.951141 
	C233.879013,201.546707 233.677872,198.465179 232.989685,197.047226 
	C231.205826,193.371765 226.467957,193.016647 223.021240,196.865967 
z"/>
<path fill="#FFC586" opacity="1.000000" stroke="none" 
	d="
M346.257507,123.996567 
	C346.797668,129.617584 348.151276,135.021912 347.375824,140.101166 
	C345.773346,150.597305 338.357117,157.092728 327.421814,157.788361 
	C317.990112,158.388351 308.489960,157.912888 298.567749,157.912888 
	C298.567749,154.615723 298.567749,151.742416 298.567749,148.549225 
	C299.876587,148.262726 301.262604,147.959351 302.813416,147.619888 
	C302.813416,138.582977 302.813416,129.799454 302.813416,120.720001 
	C301.501434,120.343185 300.129181,119.949066 298.435425,119.462601 
	C298.435425,116.643311 298.435425,113.738747 298.435425,109.507858 
	C309.668854,110.189606 320.785583,110.149803 331.647064,111.795265 
	C338.015564,112.760056 343.408875,117.086197 346.257507,123.996567 
M328.647461,124.153381 
	C326.393463,120.792625 323.376007,119.476479 319.234375,120.439796 
	C319.234375,129.636459 319.234375,138.568161 319.234375,147.454651 
	C324.501648,148.364365 329.545197,145.965744 329.804810,141.680649 
	C330.141602,136.121689 329.321930,130.492630 328.647461,124.153381 
z"/>
<path fill="#FFC585" opacity="1.000000" stroke="none" 
	d="
M260.456024,205.892380 
	C260.342041,203.233887 260.486298,200.528091 260.011658,197.935638 
	C259.750885,196.511353 258.155273,195.375397 257.676056,193.937897 
	C256.717896,191.063828 256.113831,188.071732 255.125214,184.193314 
	C263.109528,184.193314 269.885010,183.971481 276.634277,184.295746 
	C279.590668,184.437790 281.710632,191.320740 279.118103,192.804840 
	C273.725128,195.892059 276.930908,200.337204 276.937103,204.882568 
	C280.227173,201.767014 283.517242,198.651459 286.807312,195.535889 
	C286.255768,195.379379 285.704254,195.222855 285.152740,195.066330 
	C284.926697,192.239029 283.923126,189.141525 284.775391,186.688934 
	C285.262390,185.287552 288.719635,184.720078 290.937958,184.185791 
	C292.513428,183.806351 294.253357,184.108093 295.919861,184.108398 
	C304.641418,184.109940 304.683685,184.160263 303.746155,192.009796 
	C298.486267,196.407883 293.900330,200.242432 289.005035,204.335663 
	C298.497742,207.381622 299.468811,208.358597 300.033966,217.789597 
	C300.259338,221.550018 302.288391,222.149033 305.585846,222.839081 
	C305.979340,226.169510 305.978760,228.937363 305.978180,231.705231 
	C301.022919,231.586288 295.993347,231.951996 291.134155,231.206711 
	C286.631714,230.516129 284.492401,227.179550 284.963196,222.422653 
	C285.126465,220.773193 285.523163,218.819565 284.851471,217.491135 
	C283.834625,215.479996 282.256775,213.409164 280.366516,212.316376 
	C279.295074,211.697006 275.734985,212.859360 275.686859,213.423248 
	C275.460938,216.071747 275.063873,219.935211 276.572815,221.254013 
	C280.043671,224.287537 279.900787,227.564301 279.726837,231.673813 
	C271.576080,231.673813 263.700653,231.673813 255.472794,231.673813 
	C255.668289,227.514771 252.718048,222.549850 259.897919,221.474747 
	C260.025970,219.228439 260.147766,217.092285 260.645081,214.419434 
	C264.073090,210.990295 265.096008,208.241272 260.456024,205.892380 
z"/>
<path fill="#FFC585" opacity="1.000000" stroke="none" 
	d="
M132.058182,185.759735 
	C133.968781,185.771591 135.526306,185.681610 137.060699,185.442932 
	C139.098602,185.125961 141.395309,183.939789 143.057587,184.550735 
	C144.362259,185.030228 144.973221,187.628769 145.688004,189.369827 
	C145.980240,190.081650 145.898071,191.055435 145.702881,191.839508 
	C145.030991,194.538574 145.058670,198.243179 143.294159,199.646866 
	C140.546326,201.832809 134.031555,199.111649 131.654449,195.920975 
	C130.883286,194.885895 129.990265,193.405014 128.951019,193.211227 
	C126.303261,192.717575 123.520576,192.613220 120.840408,192.866501 
	C120.183708,192.928543 119.090195,195.838470 119.251366,195.952744 
	C121.318092,197.418121 123.451767,198.975418 125.816322,199.789215 
	C129.090714,200.916153 132.680359,201.130676 135.949387,202.268997 
	C144.345123,205.192535 148.537308,214.486313 145.240448,221.709778 
	C143.620850,225.258347 143.191360,229.346054 138.542908,230.773666 
	C132.092575,232.754700 125.663536,234.144775 119.063187,231.811279 
	C116.029129,230.738632 113.679543,229.005753 110.016335,231.627670 
	C106.588005,234.081436 103.064865,231.193802 102.994476,226.781586 
	C102.978546,225.782944 102.991745,224.783844 102.992020,223.784958 
	C102.994133,216.206467 105.089638,214.480850 112.652710,216.163391 
	C113.654396,216.386246 114.657219,217.604019 115.223763,218.607117 
	C117.499634,222.636719 122.088310,225.119522 126.418663,223.917435 
	C127.815445,223.529724 129.619598,221.839218 129.768478,220.572098 
	C129.895615,219.490005 128.131790,217.468109 126.832771,217.067734 
	C122.571159,215.754303 118.051712,215.276108 113.792282,213.957199 
	C104.015625,210.929916 99.302444,197.644989 105.749535,189.695023 
	C108.147110,186.738556 113.003044,184.852722 116.978935,184.337158 
	C121.749771,183.718491 126.778023,185.084900 132.058182,185.759735 
z"/>
<path fill="#FFC485" opacity="1.000000" stroke="none" 
	d="
M180.633698,184.116180 
	C184.356018,183.611343 185.934586,185.255173 186.778870,188.252777 
	C189.475693,197.827774 192.146362,207.415497 195.164612,216.890823 
	C195.925140,219.278366 197.946030,221.264435 199.387726,223.434998 
	C199.854584,223.239777 200.321426,223.044571 200.788284,222.849350 
	C200.788284,225.631958 200.788284,228.414551 200.788284,231.961670 
	C192.443817,231.961670 184.202530,232.030289 175.967529,231.834610 
	C175.290741,231.818542 174.022888,229.932480 174.125778,229.041962 
	C174.395905,226.704025 175.069458,224.351807 175.977859,222.169983 
	C176.580551,220.722382 177.864868,219.558563 178.844055,218.267731 
	C177.386200,217.515854 175.994644,216.538986 174.449387,216.083664 
	C173.224274,215.722672 171.657974,216.385712 170.507339,215.928802 
	C165.457779,213.923599 164.385696,216.790527 163.933197,221.182053 
	C170.417572,222.639297 167.520325,227.474182 167.846863,231.646423 
	C161.222717,231.646423 154.885437,231.646423 148.356537,231.646423 
	C148.356537,229.327072 148.111710,227.366043 148.444565,225.508530 
	C148.658356,224.315491 149.602356,223.172028 150.438736,222.194260 
	C151.306992,221.179184 152.977051,220.581467 153.371262,219.472382 
	C156.225510,211.442261 158.845428,203.328857 161.692673,194.782150 
	C159.143082,194.305664 157.436340,193.986694 155.386292,193.603577 
	C155.386292,190.726059 155.386292,187.814606 155.386292,184.115768 
	C163.679489,184.115768 171.929535,184.115768 180.633698,184.116180 
M170.626587,208.109543 
	C174.973328,208.608353 175.872208,206.652634 174.379913,202.907196 
	C173.416962,200.490250 172.542572,198.038025 171.511810,195.290604 
	C170.334930,198.305008 168.976974,200.951508 168.351547,203.761078 
	C168.069183,205.029587 169.245193,206.622726 170.626587,208.109543 
z"/>
<path fill="#FFC586" opacity="1.000000" stroke="none" 
	d="
M307.043457,222.609100 
	C311.468933,222.089615 313.471375,219.662552 314.161102,215.177490 
	C314.665955,211.894363 316.842896,208.904404 317.776184,205.641235 
	C318.758881,202.205307 319.149261,198.599945 319.786469,195.133575 
	C317.861328,194.120483 315.393219,193.636856 314.441132,192.169525 
	C311.449463,187.558807 313.575867,184.038589 319.127380,184.154602 
	C326.252655,184.303497 333.370300,184.927170 340.494202,184.985992 
	C344.168884,185.016357 344.936493,187.584076 345.681152,190.025528 
	C347.860168,197.169434 349.726654,204.408020 351.818054,211.579605 
	C352.652069,214.439484 353.443817,217.391357 354.857483,219.971115 
	C355.640778,221.400497 357.668396,222.148010 359.616150,223.548843 
	C359.616150,225.656601 359.616150,228.426865 359.616150,231.887650 
	C351.075806,231.887650 342.662018,232.050842 334.277100,231.633881 
	C333.443420,231.592407 332.123810,227.973679 332.239594,226.089584 
	C332.347046,224.341202 334.074280,222.692352 335.088318,220.999695 
	C335.639587,221.183594 336.190857,221.367508 336.742126,221.551422 
	C336.397614,219.870926 336.053070,218.190445 335.609192,216.025269 
	C332.323456,216.025269 329.148743,215.699631 326.095856,216.168091 
	C324.655426,216.389145 323.448730,218.133347 322.136108,219.187378 
	C323.049347,220.208908 324.299805,221.086899 324.808044,222.280838 
	C325.988770,225.054504 326.811432,227.980637 328.153564,231.952911 
	C320.421295,231.952911 314.173828,231.952911 307.470093,231.413452 
	C307.023743,228.119019 307.033600,225.364059 307.043457,222.609100 
M332.831055,207.982834 
	C332.177277,204.063309 331.523529,200.143799 330.869751,196.224274 
	C330.398285,196.218658 329.926849,196.213028 329.455383,196.207397 
	C328.345032,199.973328 327.234680,203.739258 325.950531,208.094528 
	C328.432098,208.094528 330.227783,208.094528 332.831055,207.982834 
z"/>
<path fill="#FFC586" opacity="1.000000" stroke="none" 
	d="
M185.020691,110.111542 
	C186.679504,110.111526 187.844727,110.111389 189.009964,110.110909 
	C201.901474,110.105583 201.899109,110.106255 205.557556,122.661079 
	C207.647400,129.832794 209.716705,137.010773 211.869781,144.163498 
	C212.240509,145.395157 212.685089,146.896149 213.607620,147.620956 
	C218.210785,151.237579 218.270905,151.161057 217.186462,157.691376 
	C208.522171,157.691376 199.790131,157.691376 190.377182,157.691376 
	C190.229294,154.676376 190.088760,151.811111 189.936417,148.705231 
	C191.696793,148.308334 193.093399,147.993439 195.644348,147.418289 
	C194.302597,145.370102 193.577362,142.909744 192.130539,142.364639 
	C189.834152,141.499466 186.916763,141.359085 184.524124,141.958359 
	C182.525635,142.458893 180.902802,144.459198 179.113602,145.795334 
	C180.701111,146.909897 182.288605,148.024460 184.471497,149.557037 
	C184.471497,151.410980 184.471497,154.253281 184.471497,157.970139 
	C178.697769,157.970139 172.789413,158.192642 166.911819,157.864304 
	C164.445221,157.726517 164.330322,151.921890 166.126511,149.325531 
	C168.885071,145.338120 171.419815,141.146317 173.558029,136.799469 
	C174.690704,134.496811 174.757050,131.677200 175.356812,129.103058 
	C176.281494,125.134453 178.868988,121.142792 173.671097,117.779877 
	C172.421036,116.971100 171.980270,113.671661 172.481201,111.886299 
	C172.757843,110.900337 175.727737,110.407524 177.544250,110.182281 
	C179.839523,109.897682 182.196671,110.112083 185.020691,110.111542 
M188.177322,122.808228 
	C186.541153,125.779785 184.825562,128.713409 183.365921,131.769272 
	C183.176208,132.166473 184.242874,133.762955 184.835129,133.828247 
	C187.100769,134.078003 189.410355,133.929199 192.116211,133.929199 
	C190.657761,129.536865 189.633789,126.453003 188.177322,122.808228 
z"/>
<path fill="#FFC587" opacity="1.000000" stroke="none" 
	d="
M281.008057,110.108253 
	C283.663757,110.108269 285.826050,110.107826 287.988373,110.108147 
	C296.475739,110.109375 296.747711,110.449043 295.314362,119.638763 
	C293.828064,119.860382 292.243347,120.096672 290.335052,120.381203 
	C290.335052,129.357239 290.335052,138.263138 290.335052,147.516968 
	C291.932495,147.870331 293.628693,148.245544 295.531372,148.666428 
	C295.531372,151.650833 295.531372,154.542389 295.531372,157.699997 
	C287.444366,157.699997 279.678680,157.818512 271.926361,157.550201 
	C270.955811,157.516602 269.259979,155.414108 269.295471,154.315277 
	C269.361542,152.271088 270.081512,148.799271 271.192963,148.514832 
	C274.275391,147.725891 274.121765,145.932922 274.115143,143.729065 
	C274.092194,136.099609 274.106262,128.470047 274.106262,120.625443 
	C272.418762,120.224602 271.032837,119.895401 269.405823,119.508934 
	C269.405823,116.526184 269.405823,113.630699 269.405823,110.108154 
	C273.293976,110.108154 276.904358,110.108154 281.008057,110.108253 
z"/>
<path fill="#A2FEE8" opacity="1.000000" stroke="none" 
	d="
M437.042877,86.365128 
	C437.946747,86.204384 439.632111,86.212257 439.741119,86.630737 
	C440.893402,91.054588 445.885162,93.488297 445.214233,99.138260 
	C444.719391,103.305336 446.430237,107.730629 447.131683,112.045197 
	C447.447479,113.987587 447.881927,115.934319 447.948303,117.889748 
	C448.343994,129.545151 448.269379,141.234833 449.224396,152.841293 
	C449.494171,156.119614 452.534943,159.260117 454.581818,162.275833 
	C456.503326,165.106857 458.790985,167.689377 460.907532,170.739838 
	C452.853394,167.724533 446.325531,157.875885 446.048645,149.346085 
	C445.956085,146.494995 444.827759,143.684219 444.246246,140.840057 
	C443.818298,138.747269 443.269012,136.639328 443.188141,134.522308 
	C442.770844,123.601830 441.939911,112.654579 442.371063,101.760910 
	C442.612793,95.653015 438.933563,91.682205 437.042877,86.365128 
z"/>
<path fill="#FFD3A5" opacity="1.000000" stroke="none" 
	d="
M260.329498,206.336151 
	C265.096008,208.241272 264.073090,210.990295 260.736542,213.990509 
	C260.369293,211.658829 260.286133,209.219360 260.329498,206.336151 
z"/>
<path fill="#FFC88C" opacity="1.000000" stroke="none" 
	d="
M306.769897,222.542267 
	C307.033600,225.364059 307.023743,228.119019 307.017212,231.292175 
	C306.846832,231.721909 306.673126,231.733429 306.238831,231.725082 
	C305.978760,228.937363 305.979340,226.169510 305.967041,223.014603 
	C306.134888,222.576843 306.315643,222.526138 306.769897,222.542267 
z"/>
<path fill="#A2FEE8" opacity="1.000000" stroke="none" 
	d="
M460.972351,171.409546 
	C461.584839,171.472504 462.265594,171.843155 463.013123,172.523376 
	C462.400085,172.461060 461.720337,172.089142 460.972351,171.409546 
z"/>
<path fill="#A2FEE8" opacity="1.000000" stroke="none" 
	d="
M435.065369,84.298294 
	C435.660187,84.443756 436.294861,84.904266 436.961975,85.685776 
	C436.364685,85.542313 435.734955,85.077835 435.065369,84.298294 
z"/>
<path fill="#FFFDFC" opacity="1.000000" stroke="none" 
	d="
M385.841949,204.118500 
	C384.262390,203.153625 382.459106,202.370834 382.130585,201.180893 
	C381.583435,199.199127 381.981445,196.956436 381.981445,194.924530 
	C387.793335,193.275833 391.492371,194.424881 391.997162,198.005646 
	C392.597015,202.260803 390.386597,204.136444 385.841949,204.118500 
z"/>
<path fill="#FFFEFE" opacity="1.000000" stroke="none" 
	d="
M239.924759,143.930389 
	C239.995071,141.856140 240.066116,140.238419 240.133621,138.701035 
	C246.213303,137.392227 249.401413,138.565750 249.907150,142.316040 
	C250.303680,145.256348 249.400574,147.838959 246.007080,147.989319 
	C243.459061,148.102219 239.481033,149.693680 239.924759,143.930389 
z"/>
<path fill="#FFFEFD" opacity="1.000000" stroke="none" 
	d="
M248.941559,123.276901 
	C248.288574,128.869629 247.329788,129.462646 240.342056,128.740311 
	C240.342056,126.111870 240.342056,123.433296 240.342056,120.411041 
	C243.610031,119.977882 246.872696,118.928879 248.941559,123.276901 
z"/>
<path fill="#FFFEFD" opacity="1.000000" stroke="none" 
	d="
M223.074585,196.436096 
	C226.467957,193.016647 231.205826,193.371765 232.989685,197.047226 
	C233.677872,198.465179 233.879013,201.546707 233.184494,201.951141 
	C230.722809,203.384644 227.812561,204.176971 224.977768,204.690033 
	C224.589203,204.760361 223.493881,201.927399 223.050751,200.347473 
	C222.748291,199.269043 223.011139,198.032059 223.074585,196.436096 
z"/>
<path fill="#FFFEFE" opacity="1.000000" stroke="none" 
	d="
M328.823761,124.523560 
	C329.321930,130.492630 330.141602,136.121689 329.804810,141.680649 
	C329.545197,145.965744 324.501648,148.364365 319.234375,147.454651 
	C319.234375,138.568161 319.234375,129.636459 319.234375,120.439796 
	C323.376007,119.476479 326.393463,120.792625 328.823761,124.523560 
z"/>
<path fill="#FFFEFD" opacity="1.000000" stroke="none" 
	d="
M170.193054,208.089066 
	C169.245193,206.622726 168.069183,205.029587 168.351547,203.761078 
	C168.976974,200.951508 170.334930,198.305008 171.511810,195.290604 
	C172.542572,198.038025 173.416962,200.490250 174.379913,202.907196 
	C175.872208,206.652634 174.973328,208.608353 170.193054,208.089066 
z"/>
<path fill="#FFFDFB" opacity="1.000000" stroke="none" 
	d="
M332.427246,208.038681 
	C330.227783,208.094528 328.432098,208.094528 325.950531,208.094528 
	C327.234680,203.739258 328.345032,199.973328 329.455383,196.207397 
	C329.926849,196.213028 330.398285,196.218658 330.869751,196.224274 
	C331.523529,200.143799 332.177277,204.063309 332.427246,208.038681 
z"/>
<path fill="#FFFDFC" opacity="1.000000" stroke="none" 
	d="
M188.393555,123.088684 
	C189.633789,126.453003 190.657761,129.536865 192.116211,133.929199 
	C189.410355,133.929199 187.100769,134.078003 184.835129,133.828247 
	C184.242874,133.762955 183.176208,132.166473 183.365921,131.769272 
	C184.825562,128.713409 186.541153,125.779785 188.393555,123.088684 
z"/>
</svg>