<svg version="1.1" id="Layer_1" xmlns="http://www.w3.org/2000/svg" xmlns:xlink="http://www.w3.org/1999/xlink" x="0px" y="0px"
	 width="100%" viewBox="0 0 665 375" enable-background="new 0 0 665 375" xml:space="preserve">
<path fill="#000000" opacity="1.000000" stroke="none" 
	d="
M382.000000,376.000000 
	C254.697128,376.000000 127.894264,376.000000 1.045699,376.000000 
	C1.045699,251.060501 1.045699,126.120995 1.045699,1.090738 
	C222.552902,1.090738 444.105865,1.090738 665.829407,1.090738 
	C665.829407,125.999817 665.829407,250.999878 665.829407,376.000000 
	C571.454285,376.000000 476.977142,376.000000 382.000000,376.000000 
M78.962883,201.051651 
	C78.962883,201.051651 78.883286,201.065918 79.114838,201.633453 
	C79.735641,202.148712 80.356453,202.663956 81.002518,203.569717 
	C81.002518,203.569717 81.154640,203.930252 81.018547,204.645447 
	C82.004364,206.166321 82.990181,207.687210 83.995667,209.549423 
	C83.995667,209.549423 84.117386,209.868958 83.990959,210.483490 
	C84.319809,210.713715 84.648659,210.943954 85.022987,211.568497 
	C85.022987,211.568497 85.159775,211.941132 84.994392,212.793976 
	C85.662857,220.082062 86.578911,227.358307 86.928352,234.661652 
	C87.260559,241.604980 86.484779,248.626343 87.148994,255.521606 
	C87.785187,262.125977 89.646355,268.612396 91.002945,275.932159 
	C93.484421,284.541168 97.903252,291.918243 103.893372,298.666016 
	C109.846573,305.372284 116.832733,310.064331 125.249588,312.681030 
	C127.853821,313.490631 130.761887,313.264099 133.463089,313.833374 
	C138.455307,314.885468 140.245270,313.619659 141.033157,308.380493 
	C141.367950,306.154327 141.999664,303.963501 142.619537,301.791748 
	C143.473236,298.800812 142.949722,297.331055 139.340469,296.897400 
	C130.231613,295.802887 118.798218,285.972076 117.100441,277.766388 
	C115.687943,270.939545 114.895935,263.984375 113.976746,256.139252 
	C113.928490,245.079529 113.880241,234.019806 113.680748,222.188217 
	C113.455246,221.431671 113.238350,220.672424 113.002899,219.918991 
	C110.960533,213.383530 110.191055,206.006836 106.566528,200.514694 
	C101.323906,192.570663 95.186295,184.631836 83.226364,181.617554 
	C103.601753,172.907684 111.958580,157.597733 113.997704,137.096069 
	C113.942589,125.376259 113.887474,113.656456 113.982193,101.105812 
	C114.655800,96.950111 115.487808,92.812607 115.967758,88.634666 
	C116.789658,81.480270 119.919121,75.556664 125.000259,70.575684 
	C127.581215,68.045609 130.150070,65.993690 134.245697,65.879463 
	C143.363174,65.625160 143.748901,64.809433 141.437241,55.854538 
	C141.195724,54.918945 141.160858,53.930294 141.025986,52.966839 
	C140.476059,49.038181 139.214218,45.997440 134.245178,46.974213 
	C131.215500,47.569756 127.988564,47.482033 125.107597,48.459652 
	C110.973038,53.256065 100.432693,62.186932 93.958328,75.858261 
	C89.426750,85.427177 87.896347,95.678970 87.139511,105.964920 
	C86.228882,118.340904 86.765358,130.823257 85.857773,143.199600 
	C85.213982,151.978729 81.333817,159.332214 73.378311,164.352509 
	C66.123604,168.930573 58.003216,168.955521 49.196407,170.369568 
	C49.196407,177.561874 49.196407,184.754181 49.196407,191.797913 
	C52.024441,191.797913 54.488998,191.797913 57.752213,191.981461 
	C62.453674,192.997040 67.155128,194.012634 71.964546,195.750427 
	C73.950104,197.206314 75.935654,198.662216 77.954369,200.052536 
	C77.954369,200.052536 77.885017,200.028168 78.017105,200.582474 
	C78.335030,200.765686 78.652954,200.948914 78.962883,201.051651 
M586.619263,201.895203 
	C587.023865,201.257919 587.428406,200.620621 588.127625,199.355804 
	C595.199585,192.015732 604.235535,189.349548 614.013000,189.126816 
	C618.008118,189.035797 619.368408,187.881424 619.059753,183.961823 
	C618.773865,180.331451 618.946594,176.659851 619.014404,173.008194 
	C619.080933,169.426865 617.773621,168.036057 613.846619,167.861191 
	C605.162109,167.474503 596.364258,167.049149 589.503296,160.245224 
	C585.717041,156.490479 583.315674,152.275467 582.892944,146.455017 
	C582.603882,146.274750 582.314880,146.094482 582.021057,145.985123 
	C582.021057,145.985123 582.092102,145.983994 581.994629,145.086441 
	C581.662720,137.015488 581.455872,128.936951 580.966492,120.875565 
	C580.381775,111.242500 579.555115,101.624123 578.712036,91.224564 
	C575.659668,75.850708 568.777710,63.125130 555.081238,54.375137 
	C547.112305,49.284203 538.500183,47.857292 529.222229,46.930389 
	C528.405945,51.205978 528.145691,55.485897 526.716614,59.331451 
	C524.843750,64.371109 527.007507,64.967125 531.185547,65.060699 
	C537.906433,65.211227 548.357422,72.046402 549.690796,77.511345 
	C551.828430,86.272942 553.387695,95.175667 555.043335,104.943558 
	C555.026794,115.857010 554.980408,126.770615 555.037415,137.683685 
	C555.043518,138.846725 555.654297,140.006607 556.016846,141.600189 
	C556.016846,141.600189 556.170410,142.005508 556.023743,142.755600 
	C556.340637,143.876923 556.657593,144.998230 556.996643,146.927704 
	C559.799072,162.173935 568.560486,172.612564 583.535400,178.446350 
	C580.486084,180.500443 578.370789,182.789764 575.823242,183.477539 
	C568.500732,185.454483 564.797302,191.324356 561.711121,197.039383 
	C558.575317,202.846100 557.266724,209.639511 555.008362,216.928680 
	C555.065002,227.952515 555.121643,238.976334 555.032043,250.841690 
	C553.490295,257.951477 552.149048,265.112091 550.362671,272.159882 
	C547.206299,284.612976 539.375488,292.013733 525.711182,293.408112 
	C526.956543,298.970123 528.168701,304.383636 529.377075,309.780273 
	C556.861023,310.165558 577.808838,286.515991 580.811340,256.610809 
	C580.871155,248.123032 580.547119,239.610199 581.099121,231.154556 
	C581.647583,222.753983 583.077332,214.410950 584.049011,206.029236 
	C584.049011,206.029236 584.058228,206.101501 584.712646,205.843185 
	C585.184387,204.577454 585.656189,203.311722 586.051880,202.042496 
	C586.051880,202.042496 586.055176,202.118515 586.619263,201.895203 
M518.525818,243.931015 
	C518.623901,243.630508 518.721985,243.330002 518.976990,242.150299 
	C518.997742,237.885620 520.154968,233.054642 513.663940,232.175369 
	C513.041565,232.091064 512.124817,230.937286 512.091675,230.244232 
	C511.736206,222.821548 506.509094,214.976685 513.862305,208.143066 
	C514.208557,207.821228 513.960876,206.863037 513.994507,206.201431 
	C514.508362,196.090515 507.690308,189.128845 496.671753,188.210449 
	C483.791931,188.210449 470.912079,188.210449 458.284363,188.210449 
	C458.284363,193.110214 458.284363,197.529633 458.284363,202.056854 
	C460.074982,201.972473 461.565613,201.902222 463.479492,201.991470 
	C463.479492,201.991470 463.928894,202.042969 463.994934,202.971039 
	C463.973633,212.618332 463.952301,222.265625 463.429688,232.018890 
	C463.268097,232.074173 463.106476,232.129471 462.438416,232.116135 
	C462.265015,232.397095 462.091614,232.678070 461.430450,233.025711 
	C461.430450,233.025711 460.964996,233.185989 460.095154,233.034576 
	C459.392242,233.634506 458.116333,234.202988 458.081360,234.839600 
	C457.884644,238.422638 457.986450,242.022064 457.986450,245.751190 
	C468.250061,245.751190 478.080078,245.751190 488.044769,245.751190 
	C487.959229,244.011826 487.886322,242.530029 487.967987,240.223099 
	C487.469055,238.233826 487.154266,236.170792 486.398834,234.284271 
	C485.977325,233.231827 484.227570,232.543060 484.112579,231.568176 
	C483.788086,228.817047 483.999146,226.002747 483.999146,223.103577 
	C488.944702,222.887726 491.392883,224.395538 491.030914,229.539993 
	C490.688965,234.399292 491.054901,239.303024 495.113434,243.599335 
	C495.735016,243.778778 496.356567,243.958237 496.973724,244.051086 
	C496.973724,244.051086 496.887573,244.061096 497.291992,244.764603 
	C504.033783,245.109924 510.775055,245.467880 517.520203,245.725632 
	C517.683899,245.731873 517.890259,244.622177 518.011963,244.015533 
	C518.011963,244.015533 518.021240,244.082016 518.525818,243.931015 
M362.012665,188.989532 
	C362.012665,188.989532 362.078583,188.955048 361.633026,188.196838 
	C353.060913,188.134552 344.487427,188.138779 335.917511,187.966965 
	C333.536285,187.919205 332.487793,188.555267 333.022980,191.890076 
	C333.047302,195.958160 331.850555,200.540512 337.714844,202.009537 
	C338.326111,202.162674 338.935394,203.737946 338.944916,204.659561 
	C339.036743,213.570999 339.000031,222.483749 339.000031,231.991989 
	C333.013611,231.038940 332.495239,234.629791 332.963501,239.043625 
	C333.137177,240.680664 333.106720,242.339340 333.015411,244.868866 
	C333.264557,245.221344 333.512085,245.880692 333.763153,245.882019 
	C343.479858,245.934219 353.196899,245.926285 362.821777,245.926285 
	C362.821777,243.663223 362.821777,241.848007 362.977325,239.145218 
	C362.977325,237.201828 362.977325,235.258423 362.977325,233.138336 
	C361.115021,233.037399 359.699921,232.960709 357.991241,232.868118 
	C357.991241,231.040939 357.685577,229.487732 358.066986,228.127167 
	C358.567291,226.342468 359.609406,224.709656 360.418518,223.011536 
	C362.334991,224.216736 364.966827,225.005295 365.976379,226.738693 
	C367.092712,228.655380 366.870026,231.430878 366.974426,233.843430 
	C367.308411,241.562668 371.117310,245.917114 378.157104,245.979904 
	C390.464569,246.089676 402.773987,246.033630 415.081818,245.941086 
	C416.265411,245.932190 417.938019,245.535904 418.538269,244.707169 
	C421.111145,241.154800 418.240875,233.483978 413.553864,232.144348 
	C416.476044,224.371902 423.045563,229.913315 427.385162,227.565826 
	C427.896515,229.258392 428.243042,230.405289 428.663300,231.796371 
	C426.865723,232.359650 425.063141,232.924484 423.127563,233.530991 
	C423.127563,237.292389 423.127563,241.100647 423.291016,245.791107 
	C432.376862,245.859695 441.462646,245.956833 450.548615,245.987320 
	C457.189514,246.009613 457.189636,245.970535 456.982880,238.129700 
	C456.982880,236.518723 456.982880,234.907730 456.982880,233.234360 
	C454.734467,233.056808 452.955658,232.916336 451.478851,232.799728 
	C448.918640,224.376831 446.455322,216.238541 443.969025,208.107285 
	C442.724213,204.036240 440.179443,200.451553 440.247498,195.856369 
	C440.295807,192.594986 440.271271,188.237930 435.562225,188.106125 
	C424.476257,187.795837 413.375732,188.006683 402.287476,188.006683 
	C402.287476,193.009125 402.287476,197.429169 402.287476,201.823303 
	C404.343597,201.983932 406.118378,202.122589 408.693176,202.323746 
	C405.583588,211.752975 402.718384,220.782028 399.608337,229.725937 
	C398.085541,234.105194 393.980621,233.357880 390.834351,232.777176 
	C389.320038,232.497696 387.797913,229.949585 387.089447,228.115799 
	C385.778381,224.722290 385.928345,220.419983 383.848267,217.768036 
	C381.900116,215.284393 377.852936,214.447128 374.893707,212.967438 
	C377.986328,210.064224 381.422974,206.708710 384.999084,203.509140 
	C391.457733,197.730530 392.440521,194.954163 389.678833,188.183273 
	C383.227478,188.124680 376.775787,188.016144 370.325043,188.057205 
	C369.263000,188.063965 368.205078,188.727356 367.037476,189.996536 
	C367.037476,194.321411 367.037476,198.646301 367.037476,204.593582 
	C365.283325,206.114578 361.949677,209.005112 358.616028,211.895660 
	C358.255554,211.654083 357.895081,211.412521 357.534576,211.170944 
	C358.039917,208.152069 358.545227,205.133179 359.924988,202.013184 
	C360.941040,201.569458 362.843231,201.108643 362.835052,200.684662 
	C362.759369,196.760284 362.354156,192.842270 362.012665,188.989532 
M251.006027,188.991547 
	C251.006027,188.991547 251.072113,188.954269 250.648529,188.181747 
	C239.584183,188.121353 228.519592,188.022217 217.455963,188.085648 
	C216.698364,188.089996 215.947754,189.311646 215.017365,190.879059 
	C215.017365,194.171326 215.017365,197.463593 215.017365,201.028809 
	C220.659714,200.197327 221.805161,202.223969 220.081436,207.130676 
	C217.434586,214.665207 215.391754,222.410263 212.881607,229.996170 
	C212.469696,231.241013 210.976562,232.128082 209.119995,233.033447 
	C208.412582,233.769272 207.163162,234.459991 207.097443,235.249252 
	C206.883942,237.813736 207.103714,240.414276 207.009064,243.615707 
	C207.044724,244.033615 207.080383,244.451538 207.245697,245.768921 
	C214.339218,245.846878 221.438507,246.089432 228.520645,245.842026 
	C229.712372,245.800400 231.235107,243.820251 231.859192,242.406601 
	C232.398483,241.184982 231.877563,239.495316 231.976089,237.198318 
	C230.830780,235.443466 229.685471,233.688614 228.540146,231.933746 
	C228.096283,232.156235 227.652405,232.378708 227.208527,232.601181 
	C227.208527,231.187210 227.208527,229.773224 227.208527,227.697342 
	C232.166016,229.449463 238.149078,224.978836 242.164307,231.408234 
	C235.151932,232.958694 234.834869,233.811691 236.518341,246.001038 
	C243.894897,246.001038 251.329422,245.992828 258.763916,246.002884 
	C271.091980,246.019577 271.091980,246.024536 269.567932,232.906052 
	C265.114105,234.018936 263.904144,231.427811 262.801025,227.563568 
	C259.771912,216.952393 256.187958,206.499588 252.972122,195.195053 
	C252.330292,193.105850 251.688446,191.016647 251.006027,188.991547 
M276.996368,202.982437 
	C276.968781,212.639359 276.941193,222.296295 276.189697,232.283829 
	C274.581146,232.655045 272.972595,233.026260 271.141479,233.448853 
	C271.141479,234.558121 271.141479,235.779816 270.992493,237.912796 
	C270.992493,240.509293 270.992493,243.105789 270.992493,245.739685 
	C281.236725,245.739685 291.074341,245.739685 301.047363,245.739685 
	C300.961304,243.987213 300.888550,242.505310 300.973175,240.129868 
	C300.973175,237.854568 300.973175,235.579254 300.973175,233.117737 
	C299.103607,233.027390 297.693237,232.959229 296.215668,232.887817 
	C296.215668,229.404449 296.215668,226.310852 296.215668,223.231476 
	C302.914886,222.896805 304.286896,223.889542 303.916443,230.099899 
	C303.516907,236.798233 305.348785,242.226669 311.691376,244.939072 
	C314.380371,246.089020 317.732605,245.943253 320.780853,245.926376 
	C323.850281,245.909424 327.364197,246.095062 329.808838,244.680557 
	C331.177551,243.888596 330.484009,239.937759 331.240448,237.577133 
	C332.132935,234.792191 331.786865,233.534256 328.616730,232.911346 
	C324.424561,232.087616 320.461700,218.476166 323.180328,215.006226 
	C323.274414,214.886139 323.511993,214.873474 323.596008,214.751160 
	C328.587555,207.485611 328.895996,196.790985 320.855103,193.027206 
	C317.130066,191.283600 313.048065,190.302658 308.674011,188.213074 
	C296.153076,188.213074 283.632141,188.213074 271.233032,188.213074 
	C271.233032,193.086731 271.233032,197.513031 271.233032,202.118378 
	C273.301056,202.118378 275.122131,202.118378 276.974182,202.048264 
	C276.974182,202.048264 276.899017,202.063324 276.996368,202.982437 
M376.003174,144.007263 
	C375.988831,134.402878 375.974457,124.798485 376.851715,115.021759 
	C378.455048,115.021759 380.058411,115.021759 381.993622,115.021759 
	C381.993622,111.187981 382.222565,107.714142 381.867950,104.300934 
	C381.745850,103.125763 380.189514,101.173080 379.252289,101.151604 
	C369.228302,100.921951 359.197083,101.008789 349.263153,101.008789 
	C349.263153,106.092354 349.263153,110.506859 349.263153,115.091766 
	C351.341492,115.091766 353.159729,115.091766 354.998413,116.012489 
	C354.987823,125.643417 354.977234,135.274353 354.078308,144.991562 
	C352.484406,144.991562 350.890503,144.991562 349.245758,144.991562 
	C349.245758,149.908981 349.245758,154.312546 349.245758,158.785950 
	C360.217163,158.785950 370.933594,158.785950 382.002533,158.785950 
	C382.002533,156.112976 381.717468,153.614929 382.062531,151.207169 
	C382.758911,146.347839 380.583435,144.593491 376.003174,144.007263 
M295.993195,115.968910 
	C295.958679,125.632851 295.924164,135.296799 295.006744,144.992126 
	C293.753510,144.992126 292.500275,144.992126 291.265198,144.992126 
	C291.265198,149.942123 291.265198,154.355682 291.265198,158.990005 
	C304.172974,158.990005 316.817505,159.303467 329.436218,158.868591 
	C336.628418,158.620728 344.515839,154.836151 346.631012,145.748169 
	C348.291718,138.613007 344.663208,133.700806 338.477478,129.877899 
	C345.574127,125.437309 347.203644,119.139641 344.895508,112.168610 
	C342.850250,105.991608 337.707123,102.317337 331.314056,102.114296 
	C317.998535,101.691383 304.660248,101.986404 291.225220,101.986404 
	C291.225220,105.958237 291.225220,110.390656 291.225220,115.040985 
	C292.935333,115.040985 294.424469,115.040985 295.993195,115.968910 
M442.017944,123.623489 
	C441.343628,112.894600 435.154663,105.324806 425.419617,103.517433 
	C411.982819,101.022820 398.068390,101.100967 384.278015,100.071152 
	C384.278015,105.949173 384.278015,110.361191 384.278015,114.768661 
	C385.955597,114.949898 387.363892,115.102043 388.728363,115.249451 
	C388.728363,125.326897 388.728363,135.069626 388.728363,144.775238 
	C387.032745,144.966354 385.624115,145.125107 384.285126,145.276016 
	C384.285126,150.017899 384.285126,154.419189 384.285126,157.997528 
	C397.110291,157.997528 409.685699,158.593628 422.172699,157.799438 
	C431.334961,157.216721 438.197601,151.474609 440.730743,142.672668 
	C442.372131,136.969330 441.654205,130.586990 442.017944,123.623489 
M252.593063,140.999863 
	C254.911911,140.999863 257.230774,140.999863 259.610168,140.999863 
	C259.953796,142.383591 260.242706,143.547043 260.575256,144.886337 
	C259.007629,144.971039 257.597015,145.047256 256.305237,145.117065 
	C256.305237,149.941025 256.305237,154.352707 256.305237,158.990845 
	C264.913635,158.990845 273.220551,158.989410 281.527496,158.991257 
	C289.022247,158.992920 289.119934,158.992142 288.936310,151.407532 
	C288.890778,149.526627 288.274750,146.203445 287.432281,146.038452 
	C282.611084,145.094177 282.179077,140.967850 281.136841,137.741348 
	C277.589478,126.759644 274.347870,115.671135 271.338623,104.529129 
	C270.556976,101.635155 269.301819,100.909645 266.597198,100.962540 
	C259.770752,101.096054 252.939957,101.005241 246.110916,101.005539 
	C233.593719,101.006088 233.589432,101.006607 234.052841,113.459457 
	C234.069977,113.919678 234.335724,114.370659 234.488892,114.835960 
	C236.653275,114.967979 238.736481,115.095055 241.147446,115.242119 
	C238.355850,123.357353 235.186508,130.963333 233.239304,138.870300 
	C232.173615,143.197723 231.048141,145.904053 226.344940,145.135742 
	C226.344940,150.021027 226.344940,154.421509 226.344940,158.638092 
	C234.766815,158.638092 242.833633,158.638092 250.835144,158.638092 
	C250.835144,153.992310 250.835144,149.691162 250.835144,145.269379 
	C249.160599,145.049271 247.606522,144.845001 246.054062,144.640945 
	C245.911621,139.869888 249.277451,141.235138 252.593063,140.999863 
M155.423538,197.077408 
	C151.431213,205.557693 152.637741,217.445923 158.961212,220.760681 
	C165.261337,224.063232 172.339951,226.169571 179.313690,227.770035 
	C182.548828,228.512512 184.307800,229.348557 184.903366,232.455124 
	C177.512512,237.195679 171.726852,235.435257 167.578506,227.131363 
	C162.847198,226.698898 158.054642,226.260849 153.370483,225.832703 
	C153.370483,233.108078 153.370483,239.508072 153.370483,246.366058 
	C158.019928,244.782913 163.362976,248.630859 166.667496,242.843170 
	C173.867966,247.815918 181.994812,247.633743 189.928772,246.754868 
	C193.548157,246.353928 197.816040,244.583099 200.233719,241.985397 
	C206.204590,235.569778 206.994812,223.685837 201.868057,216.263077 
	C196.831284,208.970612 188.767899,208.349976 181.416580,207.728287 
	C177.029297,207.357285 175.148285,205.543610 172.833572,202.957474 
	C177.597778,197.904556 185.559692,199.322784 188.140182,205.270920 
	C188.618820,206.374207 189.969238,207.883774 190.900085,207.871765 
	C195.117981,207.817337 199.332764,207.312317 203.534897,206.845428 
	C203.753021,206.821182 203.970230,205.654190 203.974442,205.017792 
	C204.009476,199.723984 203.994308,194.429825 203.994308,189.274353 
	C194.858322,186.852127 193.193100,187.223785 191.816635,190.568085 
	C184.420776,189.681610 177.441757,188.519470 170.418350,188.099182 
	C163.999481,187.715088 158.958496,190.568192 155.423538,197.077408 
z"/>
<path fill="#6FFDDA" opacity="1.000000" stroke="none" 
	d="
M71.856590,195.028229 
	C67.155128,194.012634 62.453674,192.997040 57.029015,191.693726 
	C51.315098,191.453613 49.346893,189.260941 49.933971,184.079193 
	C50.453014,179.497986 50.052166,174.812531 50.057461,170.173111 
	C58.003216,168.955521 66.123604,168.930573 73.378311,164.352509 
	C81.333817,159.332214 85.213982,151.978729 85.857773,143.199600 
	C86.765358,130.823257 86.228882,118.340904 87.139511,105.964920 
	C87.896347,95.678970 89.426750,85.427177 93.958328,75.858261 
	C100.432693,62.186932 110.973038,53.256065 125.107597,48.459652 
	C127.988564,47.482033 131.215500,47.569756 134.245178,46.974213 
	C139.214218,45.997440 140.476059,49.038181 141.025986,52.966839 
	C141.160858,53.930294 141.195724,54.918945 141.437241,55.854538 
	C143.748901,64.809433 143.363174,65.625160 134.245697,65.879463 
	C130.150070,65.993690 127.581215,68.045609 125.000259,70.575684 
	C119.919121,75.556664 116.789658,81.480270 115.967758,88.634666 
	C115.487808,92.812607 114.655800,96.950111 113.683197,101.877487 
	C113.242767,111.708580 113.025192,120.767845 113.006111,129.827515 
	C113.000359,132.560913 113.545586,135.295486 113.838425,138.029510 
	C111.958580,157.597733 103.601753,172.907684 83.226364,181.617554 
	C95.186295,184.631836 101.323906,192.570663 106.566528,200.514694 
	C110.191055,206.006836 110.960533,213.383530 113.002899,219.918991 
	C113.238350,220.672424 113.455246,221.431671 113.509529,222.913788 
	C113.213051,230.723099 112.964333,237.807648 113.010109,244.890305 
	C113.036385,248.957138 113.540230,253.020889 113.829094,257.086029 
	C114.895935,263.984375 115.687943,270.939545 117.100441,277.766388 
	C118.798218,285.972076 130.231613,295.802887 139.340469,296.897400 
	C142.949722,297.331055 143.473236,298.800812 142.619537,301.791748 
	C141.999664,303.963501 141.367950,306.154327 141.033157,308.380493 
	C140.245270,313.619659 138.455307,314.885468 133.463089,313.833374 
	C130.761887,313.264099 127.853821,313.490631 125.249588,312.681030 
	C116.832733,310.064331 109.846573,305.372284 103.893372,298.666016 
	C97.903252,291.918243 93.484421,284.541168 91.001907,275.084045 
	C88.357620,255.805161 87.552086,237.277603 87.752342,218.672134 
	C87.776390,216.438019 86.066170,214.185257 85.159775,211.941132 
	C85.159775,211.941132 85.022987,211.568497 84.911415,211.121124 
	C84.572357,210.405472 84.344872,210.137222 84.117386,209.868958 
	C84.117386,209.868958 83.995667,209.549423 83.999626,208.992340 
	C83.053940,206.933594 82.104286,205.431931 81.154640,203.930252 
	C81.154640,203.930252 81.002518,203.569717 80.941727,203.040894 
	C80.215050,202.030014 79.549171,201.547974 78.883286,201.065918 
	C78.883286,201.065918 78.962883,201.051651 78.844254,200.855347 
	C78.445412,200.448761 78.165215,200.238464 77.885017,200.028168 
	C77.885017,200.028168 77.954369,200.052536 77.911911,199.731369 
	C75.865166,197.949539 73.860878,196.488892 71.856590,195.028229 
z"/>
<path fill="#6EFDDA" opacity="1.000000" stroke="none" 
	d="
M580.057495,257.062775 
	C577.808838,286.515991 556.861023,310.165558 529.377075,309.780273 
	C528.168701,304.383636 526.956543,298.970123 525.711182,293.408112 
	C539.375488,292.013733 547.206299,284.612976 550.362671,272.159882 
	C552.149048,265.112091 553.490295,257.951477 555.320312,250.068542 
	C555.742310,242.574448 556.009705,235.852524 555.962036,229.132843 
	C555.930969,224.753830 555.441895,220.378052 555.157959,216.000824 
	C557.266724,209.639511 558.575317,202.846100 561.711121,197.039383 
	C564.797302,191.324356 568.500732,185.454483 575.823242,183.477539 
	C578.370789,182.789764 580.486084,180.500443 583.535400,178.446350 
	C568.560486,172.612564 559.799072,162.173935 556.995239,146.161835 
	C556.719421,144.265823 556.444885,143.135666 556.170410,142.005508 
	C556.170410,142.005508 556.016846,141.600189 556.022583,140.903534 
	C556.020569,132.738800 556.106628,125.268974 555.970215,117.803223 
	C555.886230,113.205193 555.462524,108.613358 555.191406,104.018745 
	C553.387695,95.175667 551.828430,86.272942 549.690796,77.511345 
	C548.357422,72.046402 537.906433,65.211227 531.185547,65.060699 
	C527.007507,64.967125 524.843750,64.371109 526.716614,59.331451 
	C528.145691,55.485897 528.405945,51.205978 529.222229,46.930389 
	C538.500183,47.857292 547.112305,49.284203 555.081238,54.375137 
	C568.777710,63.125130 575.659668,75.850708 578.560303,91.930145 
	C578.292786,93.116020 578.058838,93.601151 578.078369,94.075912 
	C578.707520,109.431824 579.295349,124.790138 580.092041,140.137589 
	C580.194763,142.115662 581.398438,144.036591 582.092102,145.983994 
	C582.092102,145.983994 582.021057,145.985123 582.120239,146.153015 
	C582.376221,146.581573 582.578186,146.800583 582.825256,146.977936 
	C583.315674,152.275467 585.717041,156.490479 589.503296,160.245224 
	C596.364258,167.049149 605.162109,167.474503 613.846619,167.861191 
	C617.773621,168.036057 619.080933,169.426865 619.014404,173.008194 
	C618.946594,176.659851 618.773865,180.331451 619.059753,183.961823 
	C619.368408,187.881424 618.008118,189.035797 614.013000,189.126816 
	C604.235535,189.349548 595.199585,192.015732 587.683350,199.753387 
	C586.844482,200.806808 586.449829,201.462662 586.055176,202.118500 
	C586.055176,202.118515 586.051880,202.042496 585.730530,202.115982 
	C584.958862,203.493484 584.508545,204.797501 584.058228,206.101501 
	C584.058228,206.101501 584.049011,206.029236 583.721191,206.119232 
	C582.268860,211.049210 580.530579,215.841339 580.148743,220.739212 
	C579.380615,230.591888 579.276855,240.500702 579.075439,250.389938 
	C579.030273,252.606628 579.710999,254.838104 580.057495,257.062775 
z"/>
<path fill="#FDC484" opacity="1.000000" stroke="none" 
	d="
M333.169373,243.988159 
	C333.106720,242.339340 333.137177,240.680664 332.963501,239.043625 
	C332.495239,234.629791 333.013611,231.038940 339.000031,231.991989 
	C339.000031,222.483749 339.036743,213.570999 338.944916,204.659561 
	C338.935394,203.737946 338.326111,202.162674 337.714844,202.009537 
	C331.850555,200.540512 333.047302,195.958160 333.469391,191.377289 
	C337.078583,190.245209 340.222961,189.240662 343.408051,189.088547 
	C349.619537,188.791855 355.853760,188.972229 362.078583,188.955048 
	C362.078583,188.955048 362.012665,188.989532 362.011841,189.416107 
	C361.512634,194.051056 363.630463,198.890579 359.050568,202.114304 
	C358.545227,205.133179 358.039917,208.152069 357.534576,211.170944 
	C357.895081,211.412521 358.255554,211.654083 358.616028,211.895660 
	C361.949677,209.005112 365.283325,206.114578 367.037476,204.593582 
	C367.037476,198.646301 367.037476,194.321411 367.549225,189.519440 
	C375.322998,189.046768 382.585052,189.051193 389.847076,189.055618 
	C392.440521,194.954163 391.457733,197.730530 384.999084,203.509140 
	C381.422974,206.708710 377.986328,210.064224 374.893707,212.967438 
	C377.852936,214.447128 381.900116,215.284393 383.848267,217.768036 
	C385.928345,220.419983 385.778381,224.722290 387.089447,228.115799 
	C387.797913,229.949585 389.320038,232.497696 390.834351,232.777176 
	C393.980621,233.357880 398.085541,234.105194 399.608337,229.725937 
	C402.718384,220.782028 405.583588,211.752975 408.693176,202.323746 
	C406.118378,202.122589 404.343597,201.983932 402.287476,201.823303 
	C402.287476,197.429169 402.287476,193.009125 402.287476,188.006683 
	C413.375732,188.006683 424.476257,187.795837 435.562225,188.106125 
	C440.271271,188.237930 440.295807,192.594986 440.247498,195.856369 
	C440.179443,200.451553 442.724213,204.036240 443.969025,208.107285 
	C446.455322,216.238541 448.918640,224.376831 451.478851,232.799728 
	C452.955658,232.916336 454.734467,233.056808 456.982880,233.234360 
	C456.982880,234.907730 456.982880,236.518723 456.571350,238.692627 
	C455.129456,244.971924 451.163727,245.289062 446.372131,245.078476 
	C438.636414,244.738495 430.876984,244.937531 423.127563,244.908920 
	C423.127563,241.100647 423.127563,237.292389 423.127563,233.530991 
	C425.063141,232.924484 426.865723,232.359650 428.663300,231.796371 
	C428.243042,230.405289 427.896515,229.258392 427.385162,227.565826 
	C423.045563,229.913315 416.476044,224.371902 413.553864,232.144348 
	C418.240875,233.483978 421.111145,241.154800 418.538269,244.707169 
	C417.938019,245.535904 416.265411,245.932190 415.081818,245.941086 
	C402.773987,246.033630 390.464569,246.089676 378.157104,245.979904 
	C371.117310,245.917114 367.308411,241.562668 366.974426,233.843430 
	C366.870026,231.430878 367.092712,228.655380 365.976379,226.738693 
	C364.966827,225.005295 362.334991,224.216736 360.418518,223.011536 
	C359.609406,224.709656 358.567291,226.342468 358.066986,228.127167 
	C357.685577,229.487732 357.991241,231.040939 357.991241,232.868118 
	C359.699921,232.960709 361.115021,233.037399 362.977325,233.138336 
	C362.977325,235.258423 362.977325,237.201828 362.693665,239.888687 
	C361.317932,242.058701 360.231903,244.711990 359.132935,244.717361 
	C350.479797,244.759720 341.824219,244.296036 333.169373,243.988159 
M420.090820,210.513870 
	C419.339203,212.852997 418.587585,215.192108 417.754822,217.783737 
	C420.199615,217.783737 421.941742,217.783737 424.071075,217.783737 
	C423.167236,213.236572 422.319366,208.970947 421.371796,204.203903 
	C421.081146,206.407745 420.851746,208.147018 420.090820,210.513870 
z"/>
<path fill="#FDC484" opacity="1.000000" stroke="none" 
	d="
M295.913635,115.040985 
	C294.424469,115.040985 292.935333,115.040985 291.225220,115.040985 
	C291.225220,110.390656 291.225220,105.958237 291.225220,101.986404 
	C304.660248,101.986404 317.998535,101.691383 331.314056,102.114296 
	C337.707123,102.317337 342.850250,105.991608 344.895508,112.168610 
	C347.203644,119.139641 345.574127,125.437309 338.477478,129.877899 
	C344.663208,133.700806 348.291718,138.613007 346.631012,145.748169 
	C344.515839,154.836151 336.628418,158.620728 329.436218,158.868591 
	C316.817505,159.303467 304.172974,158.990005 291.265198,158.990005 
	C291.265198,154.355682 291.265198,149.942123 291.265198,144.992126 
	C292.500275,144.992126 293.753510,144.992126 295.737305,144.678131 
	C296.653015,136.635086 296.923737,128.906494 296.965851,121.176651 
	C296.976990,119.133400 296.283539,117.086311 295.913635,115.040985 
M326.032654,141.745972 
	C326.406158,136.853119 323.271240,134.828796 316.197601,135.465149 
	C316.197601,138.876984 316.197601,142.294037 316.197601,147.265320 
	C319.945831,145.427979 322.937683,143.961395 326.032654,141.745972 
M316.432892,114.148430 
	C316.260498,117.377861 316.088104,120.607285 315.906769,124.004280 
	C317.387543,124.004280 318.213165,123.969109 319.034912,124.010483 
	C322.230072,124.171356 324.863190,122.743637 324.732239,119.621498 
	C324.663910,117.992706 322.112885,116.337097 320.459198,114.963211 
	C319.679901,114.315781 318.372833,114.303665 316.432892,114.148430 
z"/>
<path fill="#FDC484" opacity="1.000000" stroke="none" 
	d="
M442.005676,124.066193 
	C441.654205,130.586990 442.372131,136.969330 440.730743,142.672668 
	C438.197601,151.474609 431.334961,157.216721 422.172699,157.799438 
	C409.685699,158.593628 397.110291,157.997528 384.285126,157.997528 
	C384.285126,154.419189 384.285126,150.017899 384.285126,145.276016 
	C385.624115,145.125107 387.032745,144.966354 388.728363,144.775238 
	C388.728363,135.069626 388.728363,125.326897 388.728363,115.249451 
	C387.363892,115.102043 385.955597,114.949898 384.278015,114.768661 
	C384.278015,110.361191 384.278015,105.949173 384.278015,100.071152 
	C398.068390,101.100967 411.982819,101.022820 425.419617,103.517433 
	C435.154663,105.324806 441.343628,112.894600 442.005676,124.066193 
M409.194092,145.675705 
	C416.001831,145.220322 420.440521,141.342148 420.930450,135.059357 
	C421.199646,131.607346 421.255798,128.089584 420.916779,124.649887 
	C420.290649,118.296814 413.832214,113.307205 408.398346,115.708687 
	C408.546417,125.474411 408.694519,135.240128 409.194092,145.675705 
z"/>
<path fill="#FDC484" opacity="1.000000" stroke="none" 
	d="
M309.127899,188.975952 
	C313.048065,190.302658 317.130066,191.283600 320.855103,193.027206 
	C328.895996,196.790985 328.587555,207.485611 323.596008,214.751160 
	C323.511993,214.873474 323.274414,214.886139 323.180328,215.006226 
	C320.461700,218.476166 324.424561,232.087616 328.616730,232.911346 
	C331.786865,233.534256 332.132935,234.792191 331.240448,237.577133 
	C330.484009,239.937759 331.177551,243.888596 329.808838,244.680557 
	C327.364197,246.095062 323.850281,245.909424 320.780853,245.926376 
	C317.732605,245.943253 314.380371,246.089020 311.691376,244.939072 
	C305.348785,242.226669 303.516907,236.798233 303.916443,230.099899 
	C304.286896,223.889542 302.914886,222.896805 296.215668,223.231476 
	C296.215668,226.310852 296.215668,229.404449 296.215668,232.887817 
	C297.693237,232.959229 299.103607,233.027390 300.973175,233.117737 
	C300.973175,235.579254 300.973175,237.854568 300.681702,240.865036 
	C298.646393,242.733566 296.993896,244.621643 295.139984,244.846085 
	C291.046509,245.341660 286.851593,244.999283 282.698059,244.998993 
	C273.504333,244.998337 273.504333,244.998398 271.141479,237.001495 
	C271.141479,235.779816 271.141479,234.558121 271.141479,233.448853 
	C272.972595,233.026260 274.581146,232.655045 276.821350,231.808014 
	C277.629974,223.617523 277.890320,215.903275 277.927734,208.187927 
	C277.937653,206.148102 277.260620,204.104950 276.898987,202.063324 
	C276.899017,202.063324 276.974182,202.048264 276.873657,201.728897 
	C276.459595,201.040115 276.195038,200.410110 275.825104,200.340546 
	C270.583405,199.354645 271.909363,195.272049 272.168396,192.062866 
	C272.488190,188.100922 275.886475,189.059052 278.362640,189.038544 
	C288.617188,188.953568 298.872742,188.986389 309.127899,188.975952 
M297.385193,211.994629 
	C298.935181,211.676376 300.847656,211.815704 301.954926,210.938568 
	C303.882111,209.411942 306.552155,207.331131 306.668671,205.350739 
	C306.856354,202.160797 303.623322,201.809006 300.835632,201.976761 
	C299.281738,202.070267 297.717651,201.993561 295.754700,201.993561 
	C296.036743,205.760056 296.266144,208.823608 297.385193,211.994629 
z"/>
<path fill="#FDC484" opacity="1.000000" stroke="none" 
	d="
M462.944885,232.184753 
	C463.106476,232.129471 463.268097,232.074173 464.029297,231.735596 
	C464.757782,223.005875 464.937195,214.559586 464.964111,206.112808 
	C464.968445,204.757309 464.291107,203.399643 463.928894,202.042969 
	C463.928894,202.042969 463.479492,201.991470 463.142487,201.582687 
	C458.788605,199.229218 458.238159,195.763290 459.339020,192.063080 
	C460.473724,188.249176 463.986603,189.038803 466.879700,189.023682 
	C476.960358,188.970978 487.041351,188.985764 497.122223,188.974899 
	C507.690308,189.128845 514.508362,196.090515 513.994507,206.201431 
	C513.960876,206.863037 514.208557,207.821228 513.862305,208.143066 
	C506.509094,214.976685 511.736206,222.821548 512.091675,230.244232 
	C512.124817,230.937286 513.041565,232.091064 513.663940,232.175369 
	C520.154968,233.054642 518.997742,237.885620 518.729919,242.735992 
	C518.280457,243.545654 518.126587,243.799103 518.021240,244.082016 
	C518.021240,244.082016 518.011963,244.015533 517.608154,244.016754 
	C510.432129,244.032349 503.659851,244.046722 496.887573,244.061096 
	C496.887573,244.061096 496.973724,244.051086 496.818787,243.851318 
	C496.151947,243.412170 495.640045,243.172760 495.128143,242.933350 
	C491.054901,239.303024 490.688965,234.399292 491.030914,229.539993 
	C491.392883,224.395538 488.944702,222.887726 483.999146,223.103577 
	C483.999146,226.002747 483.788086,228.817047 484.112579,231.568176 
	C484.227570,232.543060 485.977325,233.231827 486.398834,234.284271 
	C487.154266,236.170792 487.469055,238.233826 487.686768,240.941818 
	C485.914856,242.774475 484.483612,244.740128 482.922791,244.849060 
	C477.343201,245.238419 471.709290,245.191986 466.118286,244.892578 
	C464.108765,244.784973 460.996674,243.988144 460.427032,242.642578 
	C459.193024,239.727646 457.269623,236.092453 460.964996,233.185989 
	C460.964996,233.185989 461.430450,233.025711 461.870178,232.898224 
	C462.563873,232.621292 462.775543,232.425964 462.944885,232.184753 
M486.468658,201.994904 
	C481.057892,204.366379 485.427765,208.617493 483.858948,211.900848 
	C490.130463,211.579712 494.095673,209.188446 493.922241,206.008698 
	C493.686249,201.682358 490.421600,201.931610 486.468658,201.994904 
z"/>
<path fill="#FDC484" opacity="1.000000" stroke="none" 
	d="
M252.134186,140.999420 
	C249.277451,141.235138 245.911621,139.869888 246.054062,144.640945 
	C247.606522,144.845001 249.160599,145.049271 250.835144,145.269379 
	C250.835144,149.691162 250.835144,153.992310 250.835144,158.638092 
	C242.833633,158.638092 234.766815,158.638092 226.344940,158.638092 
	C226.344940,154.421509 226.344940,150.021027 226.344940,145.135742 
	C231.048141,145.904053 232.173615,143.197723 233.239304,138.870300 
	C235.186508,130.963333 238.355850,123.357353 241.147446,115.242119 
	C238.736481,115.095055 236.653275,114.967979 234.488892,114.835960 
	C234.335724,114.370659 234.069977,113.919678 234.052841,113.459457 
	C233.589432,101.006607 233.593719,101.006088 246.110916,101.005539 
	C252.939957,101.005241 259.770752,101.096054 266.597198,100.962540 
	C269.301819,100.909645 270.556976,101.635155 271.338623,104.529129 
	C274.347870,115.671135 277.589478,126.759644 281.136841,137.741348 
	C282.179077,140.967850 282.611084,145.094177 287.432281,146.038452 
	C288.274750,146.203445 288.890778,149.526627 288.936310,151.407532 
	C289.119934,158.992142 289.022247,158.992920 281.527496,158.991257 
	C273.220551,158.989410 264.913635,158.990845 256.305237,158.990845 
	C256.305237,154.352707 256.305237,149.941025 256.305237,145.117065 
	C257.597015,145.047256 259.007629,144.971039 260.575256,144.886337 
	C260.242706,143.547043 259.953796,142.383591 259.610168,140.999863 
	C257.230774,140.999863 254.911911,140.999863 252.134186,140.999420 
M253.981857,119.712036 
	C253.763443,119.318214 253.545029,118.924400 253.326614,118.530579 
	C253.261276,118.672234 253.165466,118.807663 253.135040,118.956451 
	C252.326324,122.911591 251.524323,126.868095 250.732056,130.770874 
	C252.507309,130.770874 254.618027,130.770874 257.650970,130.770874 
	C256.339996,127.028465 255.194733,123.759117 253.981857,119.712036 
z"/>
<path fill="#FCC486" opacity="1.000000" stroke="none" 
	d="
M155.682495,196.782104 
	C158.958496,190.568192 163.999481,187.715088 170.418350,188.099182 
	C177.441757,188.519470 184.420776,189.681610 191.816635,190.568085 
	C193.193100,187.223785 194.858322,186.852127 203.994308,189.274353 
	C203.994308,194.429825 204.009476,199.723984 203.974442,205.017792 
	C203.970230,205.654190 203.753021,206.821182 203.534897,206.845428 
	C199.332764,207.312317 195.117981,207.817337 190.900085,207.871765 
	C189.969238,207.883774 188.618820,206.374207 188.140182,205.270920 
	C185.559692,199.322784 177.597778,197.904556 172.833572,202.957474 
	C175.148285,205.543610 177.029297,207.357285 181.416580,207.728287 
	C188.767899,208.349976 196.831284,208.970612 201.868057,216.263077 
	C206.994812,223.685837 206.204590,235.569778 200.233719,241.985397 
	C197.816040,244.583099 193.548157,246.353928 189.928772,246.754868 
	C181.994812,247.633743 173.867966,247.815918 166.667496,242.843170 
	C163.362976,248.630859 158.019928,244.782913 153.370483,246.366058 
	C153.370483,239.508072 153.370483,233.108078 153.370483,225.832703 
	C158.054642,226.260849 162.847198,226.698898 167.578506,227.131363 
	C171.726852,235.435257 177.512512,237.195679 184.903366,232.455124 
	C184.307800,229.348557 182.548828,228.512512 179.313690,227.770035 
	C172.339951,226.169571 165.261337,224.063232 158.961212,220.760681 
	C152.637741,217.445923 151.431213,205.557693 155.682495,196.782104 
z"/>
<path fill="#FDC484" opacity="1.000000" stroke="none" 
	d="
M209.983124,233.180511 
	C210.976562,232.128082 212.469696,231.241013 212.881607,229.996170 
	C215.391754,222.410263 217.434586,214.665207 220.081436,207.130676 
	C221.805161,202.223969 220.659714,200.197327 215.017365,201.028809 
	C215.017365,197.463593 215.017365,194.171326 215.502838,190.343933 
	C218.101334,189.542267 220.212189,189.067169 222.327774,189.045044 
	C231.908478,188.944839 241.490540,188.972595 251.072113,188.954269 
	C251.072113,188.954269 251.006027,188.991547 251.014130,189.343948 
	C251.622681,191.792267 252.223145,193.888199 252.823593,195.984116 
	C256.187958,206.499588 259.771912,216.952393 262.801025,227.563568 
	C263.904144,231.427811 265.114105,234.018936 269.567932,232.906052 
	C271.091980,246.024536 271.091980,246.019577 258.763916,246.002884 
	C251.329422,245.992828 243.894897,246.001038 236.518341,246.001038 
	C234.834869,233.811691 235.151932,232.958694 242.164307,231.408234 
	C238.149078,224.978836 232.166016,229.449463 227.208527,227.697342 
	C227.208527,229.773224 227.208527,231.187210 227.208527,232.601181 
	C227.652405,232.378708 228.096283,232.156235 228.540146,231.933746 
	C229.685471,233.688614 230.830780,235.443466 231.555664,237.744202 
	C230.794983,238.827774 230.118210,239.398071 230.166687,239.898041 
	C230.631210,244.688736 227.884415,245.234329 224.024155,245.054703 
	C218.397430,244.792892 212.752945,244.912460 207.116043,244.869446 
	C207.080383,244.451538 207.044724,244.033615 207.293915,242.980957 
	C208.380219,239.290970 209.181671,236.235733 209.983124,233.180511 
M236.971252,214.410782 
	C236.184204,212.124298 235.397156,209.837814 234.477997,207.167572 
	C233.206619,210.936584 232.095810,214.229538 230.837112,217.960892 
	C232.795441,217.960892 234.465576,218.181992 236.007568,217.834457 
	C236.510345,217.721130 236.678986,216.125290 236.971252,214.410782 
z"/>
<path fill="#FCC485" opacity="1.000000" stroke="none" 
	d="
M354.977966,115.091766 
	C353.159729,115.091766 351.341492,115.091766 349.263153,115.091766 
	C349.263153,110.506859 349.263153,106.092354 349.263153,101.008789 
	C359.197083,101.008789 369.228302,100.921951 379.252289,101.151604 
	C380.189514,101.173080 381.745850,103.125763 381.867950,104.300934 
	C382.222565,107.714142 381.993622,111.187981 381.993622,115.021759 
	C380.058411,115.021759 378.455048,115.021759 376.116974,115.384491 
	C375.237061,124.459328 375.054382,133.171188 374.997223,141.883881 
	C374.990601,142.897522 375.678528,143.915695 376.044434,144.931778 
	C380.583435,144.593491 382.758911,146.347839 382.062531,151.207169 
	C381.717468,153.614929 382.002533,156.112976 382.002533,158.785950 
	C370.933594,158.785950 360.217163,158.785950 349.245758,158.785950 
	C349.245758,154.312546 349.245758,149.908981 349.245758,144.991562 
	C350.890503,144.991562 352.484406,144.991562 354.857574,144.703262 
	C355.757812,136.664429 355.954041,128.913864 355.948700,121.163414 
	C355.947296,119.139305 355.318573,117.115639 354.977966,115.091766 
z"/>
<path fill="#87F2D8" opacity="1.000000" stroke="none" 
	d="
M85.077087,212.367554 
	C86.066170,214.185257 87.776390,216.438019 87.752342,218.672134 
	C87.552086,237.277603 88.357620,255.805161 90.985008,274.693298 
	C89.646355,268.612396 87.785187,262.125977 87.148994,255.521606 
	C86.484779,248.626343 87.260559,241.604980 86.928352,234.661652 
	C86.578911,227.358307 85.662857,220.082062 85.077087,212.367554 
z"/>
<path fill="#87F2D8" opacity="1.000000" stroke="none" 
	d="
M582.043335,145.535217 
	C581.398438,144.036591 580.194763,142.115662 580.092041,140.137589 
	C579.295349,124.790138 578.707520,109.431824 578.078369,94.075912 
	C578.058838,93.601151 578.292786,93.116020 578.620911,92.317551 
	C579.555115,101.624123 580.381775,111.242500 580.966492,120.875565 
	C581.455872,128.936951 581.662720,137.015488 582.043335,145.535217 
z"/>
<path fill="#92F6DC" opacity="1.000000" stroke="none" 
	d="
M580.434448,256.836792 
	C579.710999,254.838104 579.030273,252.606628 579.075439,250.389938 
	C579.276855,240.500702 579.380615,230.591888 580.148743,220.739212 
	C580.530579,215.841339 582.268860,211.049210 583.757019,206.125961 
	C583.077332,214.410950 581.647583,222.753983 581.099121,231.154556 
	C580.547119,239.610199 580.871155,248.123032 580.434448,256.836792 
z"/>
<path fill="#F0C89D" opacity="1.000000" stroke="none" 
	d="
M496.896973,188.592682 
	C487.041351,188.985764 476.960358,188.970978 466.879700,189.023682 
	C463.986603,189.038803 460.473724,188.249176 459.339020,192.063080 
	C458.238159,195.763290 458.788605,199.229218 462.930847,201.502945 
	C461.565613,201.902222 460.074982,201.972473 458.284363,202.056854 
	C458.284363,197.529633 458.284363,193.110214 458.284363,188.210449 
	C470.912079,188.210449 483.791931,188.210449 496.896973,188.592682 
z"/>
<path fill="#F0C89D" opacity="1.000000" stroke="none" 
	d="
M308.900940,188.594513 
	C298.872742,188.986389 288.617188,188.953568 278.362640,189.038544 
	C275.886475,189.059052 272.488190,188.100922 272.168396,192.062866 
	C271.909363,195.272049 270.583405,199.354645 275.825104,200.340546 
	C276.195038,200.410110 276.459595,201.040115 276.858154,201.763947 
	C275.122131,202.118378 273.301056,202.118378 271.233032,202.118378 
	C271.233032,197.513031 271.233032,193.086731 271.233032,188.213074 
	C283.632141,188.213074 296.153076,188.213074 308.900940,188.594513 
z"/>
<path fill="#F0C89D" opacity="1.000000" stroke="none" 
	d="
M460.530090,233.110291 
	C457.269623,236.092453 459.193024,239.727646 460.427032,242.642578 
	C460.996674,243.988144 464.108765,244.784973 466.118286,244.892578 
	C471.709290,245.191986 477.343201,245.238419 482.922791,244.849060 
	C484.483612,244.740128 485.914856,242.774475 487.609497,241.354370 
	C487.886322,242.530029 487.959229,244.011826 488.044769,245.751190 
	C478.080078,245.751190 468.250061,245.751190 457.986450,245.751190 
	C457.986450,242.022064 457.884644,238.422638 458.081360,234.839600 
	C458.116333,234.202988 459.392242,233.634506 460.530090,233.110291 
z"/>
<path fill="#F0C89D" opacity="1.000000" stroke="none" 
	d="
M423.209290,245.350006 
	C430.876984,244.937531 438.636414,244.738495 446.372131,245.078476 
	C451.163727,245.289062 455.129456,244.971924 456.495605,239.127350 
	C457.189636,245.970535 457.189514,246.009613 450.548615,245.987320 
	C441.462646,245.956833 432.376862,245.859695 423.209290,245.350006 
z"/>
<path fill="#F0C89D" opacity="1.000000" stroke="none" 
	d="
M271.066986,237.457153 
	C273.504333,244.998398 273.504333,244.998337 282.698059,244.998993 
	C286.851593,244.999283 291.046509,245.341660 295.139984,244.846085 
	C296.993896,244.621643 298.646393,242.733566 300.603027,241.311798 
	C300.888550,242.505310 300.961304,243.987213 301.047363,245.739685 
	C291.074341,245.739685 281.236725,245.739685 270.992493,245.739685 
	C270.992493,243.105789 270.992493,240.509293 271.066986,237.457153 
z"/>
<path fill="#F0C89D" opacity="1.000000" stroke="none" 
	d="
M250.860321,188.568008 
	C241.490540,188.972595 231.908478,188.944839 222.327774,189.045044 
	C220.212189,189.067169 218.101334,189.542267 215.591110,189.888000 
	C215.947754,189.311646 216.698364,188.089996 217.455963,188.085648 
	C228.519592,188.022217 239.584183,188.121353 250.860321,188.568008 
z"/>
<path fill="#F0C89D" opacity="1.000000" stroke="none" 
	d="
M207.180878,245.319183 
	C212.752945,244.912460 218.397430,244.792892 224.024155,245.054703 
	C227.884415,245.234329 230.631210,244.688736 230.166687,239.898041 
	C230.118210,239.398071 230.794983,238.827774 231.480286,238.151337 
	C231.877563,239.495316 232.398483,241.184982 231.859192,242.406601 
	C231.235107,243.820251 229.712372,245.800400 228.520645,245.842026 
	C221.438507,246.089432 214.339218,245.846878 207.180878,245.319183 
z"/>
<path fill="#F0C89D" opacity="1.000000" stroke="none" 
	d="
M333.092407,244.428513 
	C341.824219,244.296036 350.479797,244.759720 359.132935,244.717361 
	C360.231903,244.711990 361.317932,242.058701 362.615875,240.332458 
	C362.821777,241.848007 362.821777,243.663223 362.821777,245.926285 
	C353.196899,245.926285 343.479858,245.934219 333.763153,245.882019 
	C333.512085,245.880692 333.264557,245.221344 333.092407,244.428513 
z"/>
<path fill="#92F6DC" opacity="1.000000" stroke="none" 
	d="
M555.117371,104.481155 
	C555.462524,108.613358 555.886230,113.205193 555.970215,117.803223 
	C556.106628,125.268974 556.020569,132.738800 556.006470,140.687424 
	C555.654297,140.006607 555.043518,138.846725 555.037415,137.683685 
	C554.980408,126.770615 555.026794,115.857010 555.117371,104.481155 
z"/>
<path fill="#B9FCED" opacity="1.000000" stroke="none" 
	d="
M113.918068,137.562790 
	C113.545586,135.295486 113.000359,132.560913 113.006111,129.827515 
	C113.025192,120.767845 113.242767,111.708580 113.608276,102.292908 
	C113.887474,113.656456 113.942589,125.376259 113.918068,137.562790 
z"/>
<path fill="#F0C89D" opacity="1.000000" stroke="none" 
	d="
M361.855804,188.575928 
	C355.853760,188.972229 349.619537,188.791855 343.408051,189.088547 
	C340.222961,189.240662 337.078583,190.245209 333.545258,190.940918 
	C332.487793,188.555267 333.536285,187.919205 335.917511,187.966965 
	C344.487427,188.138779 353.060913,188.134552 361.855804,188.575928 
z"/>
<path fill="#B9FCED" opacity="1.000000" stroke="none" 
	d="
M113.902924,256.612640 
	C113.540230,253.020889 113.036385,248.957138 113.010109,244.890305 
	C112.964333,237.807648 113.213051,230.723099 113.585144,223.299713 
	C113.880241,234.019806 113.928490,245.079529 113.902924,256.612640 
z"/>
<path fill="#92F6DC" opacity="1.000000" stroke="none" 
	d="
M555.083191,216.464752 
	C555.441895,220.378052 555.930969,224.753830 555.962036,229.132843 
	C556.009705,235.852524 555.742310,242.574448 555.393433,249.647797 
	C555.121643,238.976334 555.065002,227.952515 555.083191,216.464752 
z"/>
<path fill="#F0C89D" opacity="1.000000" stroke="none" 
	d="
M497.089783,244.412857 
	C503.659851,244.046722 510.432129,244.032349 517.640625,244.025482 
	C517.890259,244.622177 517.683899,245.731873 517.520203,245.725632 
	C510.775055,245.467880 504.033783,245.109924 497.089783,244.412857 
z"/>
<path fill="#F4D8B1" opacity="1.000000" stroke="none" 
	d="
M276.947693,202.522888 
	C277.260620,204.104950 277.937653,206.148102 277.927734,208.187927 
	C277.890320,215.903275 277.629974,223.617523 277.183289,231.642700 
	C276.941193,222.296295 276.968781,212.639359 276.947693,202.522888 
z"/>
<path fill="#F4D8B1" opacity="1.000000" stroke="none" 
	d="
M295.953400,115.504944 
	C296.283539,117.086311 296.976990,119.133400 296.965851,121.176651 
	C296.923737,128.906494 296.653015,136.635086 296.178772,144.662445 
	C295.924164,135.296799 295.958679,125.632851 295.953400,115.504944 
z"/>
<path fill="#FFFFFF" opacity="1.000000" stroke="none" 
	d="
M354.988190,115.552124 
	C355.318573,117.115639 355.947296,119.139305 355.948700,121.163414 
	C355.954041,128.913864 355.757812,136.664429 355.301758,144.660126 
	C354.977234,135.274353 354.987823,125.643417 354.988190,115.552124 
z"/>
<path fill="#FFFFFF" opacity="1.000000" stroke="none" 
	d="
M376.023804,144.469513 
	C375.678528,143.915695 374.990601,142.897522 374.997223,141.883881 
	C375.054382,133.171188 375.237061,124.459328 375.671173,115.470657 
	C375.974457,124.798485 375.988831,134.402878 376.023804,144.469513 
z"/>
<path fill="#B9FCED" opacity="1.000000" stroke="none" 
	d="
M49.626934,170.271332 
	C50.052166,174.812531 50.453014,179.497986 49.933971,184.079193 
	C49.346893,189.260941 51.315098,191.453613 56.629684,191.601959 
	C54.488998,191.797913 52.024441,191.797913 49.196407,191.797913 
	C49.196407,184.754181 49.196407,177.561874 49.626934,170.271332 
z"/>
<path fill="#FFFFFF" opacity="1.000000" stroke="none" 
	d="
M463.961914,202.507004 
	C464.291107,203.399643 464.968445,204.757309 464.964111,206.112808 
	C464.937195,214.559586 464.757782,223.005875 464.279968,231.682617 
	C463.952301,222.265625 463.973633,212.618332 463.961914,202.507004 
z"/>
<path fill="#F0C89D" opacity="1.000000" stroke="none" 
	d="
M389.762939,188.619446 
	C382.585052,189.051193 375.322998,189.046768 367.603119,189.064819 
	C368.205078,188.727356 369.263000,188.063965 370.325043,188.057205 
	C376.775787,188.016144 383.227478,188.124680 389.762939,188.619446 
z"/>
<path fill="#F0C89D" opacity="1.000000" stroke="none" 
	d="
M359.487793,202.063751 
	C363.630463,198.890579 361.512634,194.051056 362.027893,189.382538 
	C362.354156,192.842270 362.759369,196.760284 362.835052,200.684662 
	C362.843231,201.108643 360.941040,201.569458 359.487793,202.063751 
z"/>
<path fill="#87F2D8" opacity="1.000000" stroke="none" 
	d="
M71.910568,195.389328 
	C73.860878,196.488892 75.865166,197.949539 77.895325,199.764160 
	C75.935654,198.662216 73.950104,197.206314 71.910568,195.389328 
z"/>
<path fill="#F0C89D" opacity="1.000000" stroke="none" 
	d="
M209.551559,233.106964 
	C209.181671,236.235733 208.380219,239.290970 207.367737,242.673584 
	C207.103714,240.414276 206.883942,237.813736 207.097443,235.249252 
	C207.163162,234.459991 208.412582,233.769272 209.551559,233.106964 
z"/>
<path fill="#F0C89D" opacity="1.000000" stroke="none" 
	d="
M252.897858,195.589584 
	C252.223145,193.888199 251.622681,191.792267 251.034424,189.311890 
	C251.688446,191.016647 252.330292,193.105850 252.897858,195.589584 
z"/>
<path fill="#87F2D8" opacity="1.000000" stroke="none" 
	d="
M81.086594,204.287842 
	C82.104286,205.431931 83.053940,206.933594 83.989792,208.821686 
	C82.990181,207.687210 82.004364,206.166321 81.086594,204.287842 
z"/>
<path fill="#92F6DC" opacity="1.000000" stroke="none" 
	d="
M584.385437,205.972351 
	C584.508545,204.797501 584.958862,203.493484 585.768555,202.117737 
	C585.656189,203.311722 585.184387,204.577454 584.385437,205.972351 
z"/>
<path fill="#92F6DC" opacity="1.000000" stroke="none" 
	d="
M556.097046,142.380554 
	C556.444885,143.135666 556.719421,144.265823 556.984192,145.757767 
	C556.657593,144.998230 556.340637,143.876923 556.097046,142.380554 
z"/>
<path fill="#92F6DC" opacity="1.000000" stroke="none" 
	d="
M586.337219,202.006851 
	C586.449829,201.462662 586.844482,200.806808 587.536072,200.067154 
	C587.428406,200.620621 587.023865,201.257919 586.337219,202.006851 
z"/>
<path fill="#87F2D8" opacity="1.000000" stroke="none" 
	d="
M78.999062,201.349686 
	C79.549171,201.547974 80.215050,202.030014 80.929092,202.845642 
	C80.356453,202.663956 79.735641,202.148712 78.999062,201.349686 
z"/>
<path fill="#F0C89D" opacity="1.000000" stroke="none" 
	d="
M495.120789,243.266342 
	C495.640045,243.172760 496.151947,243.412170 496.820984,243.894623 
	C496.356567,243.958237 495.735016,243.778778 495.120789,243.266342 
z"/>
<path fill="#87F2D8" opacity="1.000000" stroke="none" 
	d="
M84.054169,210.176224 
	C84.344872,210.137222 84.572357,210.405472 84.888672,210.923950 
	C84.648659,210.943954 84.319809,210.713715 84.054169,210.176224 
z"/>
<path fill="#F0C89D" opacity="1.000000" stroke="none" 
	d="
M462.691650,232.150452 
	C462.775543,232.425964 462.563873,232.621292 462.114044,232.864883 
	C462.091614,232.678070 462.265015,232.397095 462.691650,232.150452 
z"/>
<path fill="#87F2D8" opacity="1.000000" stroke="none" 
	d="
M582.859131,146.716476 
	C582.578186,146.800583 582.376221,146.581573 582.122559,146.117584 
	C582.314880,146.094482 582.603882,146.274750 582.859131,146.716476 
z"/>
<path fill="#F0C89D" opacity="1.000000" stroke="none" 
	d="
M518.273560,244.006516 
	C518.126587,243.799103 518.280457,243.545654 518.651489,243.175583 
	C518.721985,243.330002 518.623901,243.630508 518.273560,244.006516 
z"/>
<path fill="#87F2D8" opacity="1.000000" stroke="none" 
	d="
M77.951065,200.305328 
	C78.165215,200.238464 78.445412,200.448761 78.848251,200.895584 
	C78.652954,200.948914 78.335030,200.765686 77.951065,200.305328 
z"/>
<path fill="#000000" opacity="1.000000" stroke="none" 
	d="
M420.356598,210.200089 
	C420.851746,208.147018 421.081146,206.407745 421.371796,204.203903 
	C422.319366,208.970947 423.167236,213.236572 424.071075,217.783737 
	C421.941742,217.783737 420.199615,217.783737 417.754822,217.783737 
	C418.587585,215.192108 419.339203,212.852997 420.356598,210.200089 
z"/>
<path fill="#000000" opacity="1.000000" stroke="none" 
	d="
M325.981110,142.120392 
	C322.937683,143.961395 319.945831,145.427979 316.197601,147.265320 
	C316.197601,142.294037 316.197601,138.876984 316.197601,135.465149 
	C323.271240,134.828796 326.406158,136.853119 325.981110,142.120392 
z"/>
<path fill="#000000" opacity="1.000000" stroke="none" 
	d="
M316.868896,114.076042 
	C318.372833,114.303665 319.679901,114.315781 320.459198,114.963211 
	C322.112885,116.337097 324.663910,117.992706 324.732239,119.621498 
	C324.863190,122.743637 322.230072,124.171356 319.034912,124.010483 
	C318.213165,123.969109 317.387543,124.004280 315.906769,124.004280 
	C316.088104,120.607285 316.260498,117.377861 316.868896,114.076042 
z"/>
<path fill="#000000" opacity="1.000000" stroke="none" 
	d="
M408.844788,115.018524 
	C413.832214,113.307205 420.290649,118.296814 420.916779,124.649887 
	C421.255798,128.089584 421.199646,131.607346 420.930450,135.059357 
	C420.440521,141.342148 416.001831,145.220322 409.093262,144.876038 
	C408.943237,134.390427 408.894012,124.704475 408.844788,115.018524 
z"/>
<path fill="#F0C89D" opacity="1.000000" stroke="none" 
	d="
M408.621582,115.363602 
	C408.894012,124.704475 408.943237,134.390427 408.917542,144.541107 
	C408.694519,135.240128 408.546417,125.474411 408.621582,115.363602 
z"/>
<path fill="#000000" opacity="1.000000" stroke="none" 
	d="
M296.940369,211.940887 
	C296.266144,208.823608 296.036743,205.760056 295.754700,201.993561 
	C297.717651,201.993561 299.281738,202.070267 300.835632,201.976761 
	C303.623322,201.809006 306.856354,202.160797 306.668671,205.350739 
	C306.552155,207.331131 303.882111,209.411942 301.954926,210.938568 
	C300.847656,211.815704 298.935181,211.676376 296.940369,211.940887 
z"/>
<path fill="#000000" opacity="1.000000" stroke="none" 
	d="
M486.920776,201.995895 
	C490.421600,201.931610 493.686249,201.682358 493.922241,206.008698 
	C494.095673,209.188446 490.130463,211.579712 483.858948,211.900848 
	C485.427765,208.617493 481.057892,204.366379 486.920776,201.995895 
z"/>
<path fill="#000000" opacity="1.000000" stroke="none" 
	d="
M254.015656,120.100906 
	C255.194733,123.759117 256.339996,127.028465 257.650970,130.770874 
	C254.618027,130.770874 252.507309,130.770874 250.732056,130.770874 
	C251.524323,126.868095 252.326324,122.911591 253.135040,118.956451 
	C253.165466,118.807663 253.261276,118.672234 253.326599,118.530579 
	C253.545029,118.924400 253.763443,119.318214 254.015656,120.100906 
z"/>
<path fill="#000000" opacity="1.000000" stroke="none" 
	d="
M236.985840,214.809143 
	C236.678986,216.125290 236.510345,217.721130 236.007568,217.834457 
	C234.465576,218.181992 232.795441,217.960892 230.837112,217.960892 
	C232.095810,214.229538 233.206619,210.936584 234.477997,207.167572 
	C235.397156,209.837814 236.184204,212.124298 236.985840,214.809143 
z"/>
</svg>